<svg width="187" height="187" viewBox="0 0 187 187" fill="none" xmlns="http://www.w3.org/2000/svg">
<g id="Frame">
<path id="Vector" d="M90.4174 44.5162H71.3916L59.8853 63.1344C58.9883 64.8212 58.5193 66.7025 58.5193 68.6129V141.965C58.5193 145.061 59.749 148.029 61.9378 150.218C64.1266 152.407 67.0953 153.637 70.1907 153.637H91.6183C94.7135 153.636 97.6818 152.406 99.8703 150.218C102.059 148.029 103.288 145.06 103.288 141.965V68.6129C103.288 66.7025 102.819 64.8212 101.922 63.1344L90.4174 44.5162Z" fill="#62DFF4"/>
<path id="Vector_2" d="M91.275 30.6373H70.4522C68.4617 30.6373 66.8481 32.251 66.8481 34.2415V40.9106C66.8481 42.9011 68.4617 44.5148 70.4522 44.5148H91.275C93.2655 44.5148 94.8791 42.9011 94.8791 40.9106V34.2415C94.8791 32.251 93.2655 30.6373 91.275 30.6373Z" fill="#2B74F7"/>
<path id="Vector_3" d="M58.5193 69.0541H103.29V98.8222H58.5193V69.0541Z" fill="#FFF5DC"/>
<path id="Vector_4" d="M86.9988 86.8922C86.9741 88.4921 86.3211 90.0182 85.1809 91.1409C84.0407 92.2636 82.5047 92.8928 80.9045 92.8928C79.3044 92.8928 77.7684 92.2636 76.6282 91.1409C75.488 90.0182 74.835 88.4921 74.8102 86.8922C74.8102 83.532 80.9053 74.8891 80.9053 74.8891C80.9053 74.8891 86.9988 83.5262 86.9988 86.8922Z" fill="#2B74F7"/>
<path id="Vector_5" d="M152.162 153.637H121.294L114.998 82.1777H158.461L152.162 153.637Z" fill="#FFF5DC"/>
<path id="Vector_6" d="M156.631 102.927H117.03L121.294 153.637H152.162L156.631 102.927Z" fill="#62DFF4"/>
</g>
</svg>
