<svg width="83" height="83" viewBox="0 0 83 83" fill="none" xmlns="http://www.w3.org/2000/svg">
<g id="Frame">
<g clip-path="url(#clip0_109_102)">
<g id="Layer_x0020_1">
<path id="Vector" fill-rule="evenodd" clip-rule="evenodd" d="M0 0H83V83H0V0Z" fill="#1E1E1E"/>
<path id="Vector_2" d="M68.6128 21.3174C67.2754 18.3184 64.9653 15.9678 62.25 14.5493C59.5347 13.1309 56.3735 12.604 53.334 13.293C51.6318 13.6577 48.8354 15.1167 46.5254 17.0215C44.7827 18.4399 43.3237 20.1016 42.959 21.5606C42.7969 22.2495 42.1079 22.6953 41.3784 22.5332C41.0542 22.4522 40.811 22.29 40.6489 22.0469V22.0064L40.6084 21.9658C40.4463 21.7227 40.2842 21.4795 40.1626 21.2363C40.0815 21.0742 40.0005 20.9526 39.9194 20.8311C39.0278 19.4126 37.9336 18.0347 36.6772 16.8594C35.583 15.8462 34.4077 14.9546 33.1919 14.4277L32.584 14.1846C29.1797 12.8066 25.5728 12.7661 22.4116 13.9414C19.2505 15.1167 16.4946 17.5889 14.833 21.2363C14.752 21.439 14.6304 21.6416 14.5493 21.8848C8.06494 37.9336 22.7358 51.7129 35.0156 63.2227C37.3662 65.4111 39.5952 67.5186 41.6216 69.5855L41.7026 69.5044C41.7837 69.3828 41.8647 69.3018 42.0269 69.1397L42.4727 68.6939C45.5527 65.2896 48.876 62.2905 52.1182 59.332C60.9126 51.3887 69.0991 43.9316 69.9502 30.5576C70.0312 28.9365 70.0312 27.356 69.8286 25.8159C69.626 24.3164 69.2207 22.8574 68.5723 21.3984L68.6128 21.3174ZM63.4253 12.2393C66.627 13.9414 69.3423 16.6973 70.9634 20.2637C71.7334 21.9658 72.1792 23.668 72.4224 25.4106C72.6655 27.1128 72.6655 28.8555 72.5845 30.6387C71.6929 45.0664 63.1011 52.8477 53.9014 61.1963C50.6997 64.0737 47.4575 67.0322 44.418 70.3555C44.3774 70.396 44.3774 70.4365 44.3369 70.4771L43.8911 70.9229L43.6885 71.1255C43.5669 71.2471 43.4453 71.4092 43.2427 71.5713L43.2021 71.6118C43.1211 71.6929 43.04 71.7739 42.9995 71.855C42.8374 72.0576 42.6753 72.2197 42.4727 72.3818C42.1484 72.625 41.7432 72.7061 41.3379 72.5845C40.9326 72.4629 40.5679 72.0981 40.2437 71.7739C40.1626 71.6523 40.041 71.5713 40.0005 71.5308L39.9194 71.4497C39.8789 71.4092 39.8789 71.3687 39.8384 71.3687C37.8525 69.3828 35.6235 67.2754 33.2729 65.0869C20.4258 53.0503 5.02539 38.582 12.1987 20.9121C12.2798 20.6689 12.4014 20.4258 12.5229 20.1826C14.4683 15.8462 17.751 12.9688 21.52 11.5503C25.2891 10.1318 29.585 10.2129 33.5566 11.834C33.7593 11.915 34.0024 12.0366 34.2456 12.1177C35.7451 12.8066 37.1636 13.8198 38.4604 15.0356C39.5952 16.1299 40.6489 17.3457 41.5 18.6021C42.3511 17.3457 43.5264 16.1299 44.8232 15.0356C47.4575 12.8877 50.6592 11.2261 52.6855 10.7803C56.333 9.96973 60.1021 10.5776 63.3848 12.2798L63.4253 12.2393Z" fill="#FFFFFE"/>
<path id="Vector_3" d="M42.7969 25.3296C42.7969 24.4785 43.0806 23.668 43.5669 23.0195C44.0532 22.3711 44.7422 21.8848 45.5527 21.6416C45.958 21.52 46.647 21.4795 47.2954 21.5605C47.417 21.2768 47.5791 20.9932 47.7817 20.75C48.4302 19.98 49.3623 19.4531 50.2944 19.3315C51.2266 19.21 52.1992 19.4531 53.0503 20.1016C55.9277 22.4116 54.5498 25.8564 53.3745 28.7339C53.1719 29.2202 53.0098 29.666 52.8882 29.9902V30.0713C52.8071 30.2739 52.7666 30.4766 52.4829 30.6792C52.1992 30.9224 51.8345 31.0439 51.4697 31.0034C51.3481 31.0034 51.2671 30.9629 51.186 30.9224C51.1455 30.9224 51.105 30.8818 51.0645 30.8818H51.0239L50.9429 30.8413C50.9023 30.8413 50.8618 30.8008 50.8213 30.8008C50.2539 30.6387 49.6055 30.4766 48.9976 30.355C46.8496 29.9092 44.8638 29.4634 43.5264 27.2344C43.3643 26.9507 43.2021 26.6265 43.0806 26.3022C42.959 25.978 42.8779 25.5727 42.8779 25.1675L42.7969 25.3296ZM45.6338 24.6001C45.4717 24.8027 45.3906 25.0459 45.3906 25.2891C45.3906 25.4106 45.4312 25.4917 45.4717 25.6133C45.5122 25.7349 45.5933 25.897 45.6743 26.0185C46.4443 27.3154 47.9033 27.5991 49.4839 27.9639C49.9297 28.0449 50.3755 28.1665 50.8213 28.2881C50.8618 28.126 50.9429 28.0044 50.9834 27.8423C51.8345 25.7754 52.8477 23.3032 51.4697 22.209C51.2266 22.0063 50.9429 21.9253 50.6592 21.9658C50.335 22.0063 50.0107 22.1685 49.7676 22.4521C49.7271 22.5332 49.646 22.6143 49.6055 22.7358C49.5649 22.8979 49.5244 23.0601 49.4839 23.1816V23.3437C49.4839 23.4248 49.4839 23.4653 49.4434 23.5464C49.4028 23.7895 49.2407 23.9922 49.0786 24.1948C48.5518 24.6811 47.7412 24.6406 47.2549 24.1138C47.2144 24.0732 47.2144 24.1543 47.0928 24.1138C46.7686 24.0732 46.4849 24.0732 46.3228 24.1138C46.0796 24.1948 45.8364 24.3569 45.6743 24.5596L45.6338 24.6001ZM33.6782 35.7856C33.5972 35.6641 33.5161 35.583 33.354 35.5019C33.1919 35.4209 33.0298 35.4209 32.8677 35.4614C32.7866 35.4614 32.6245 35.583 32.4219 35.7046C32.4219 35.7046 32.3813 35.7046 32.3813 35.6641L32.3408 35.6235C32.1787 36.3125 31.4897 36.7178 30.8008 36.5557C30.5171 36.4746 30.2739 36.3125 30.0713 36.1099C30.0308 36.0288 29.9902 35.9883 29.9497 35.9072L29.7065 35.6641C29.666 35.6235 29.585 35.583 29.5444 35.583C29.3013 35.5019 29.0986 35.5019 28.896 35.583C28.7339 35.6235 28.6123 35.7451 28.5718 35.9072C28.0854 37.042 29.7065 38.3389 31.0439 39.4331L31.1655 39.5547C31.4087 39.352 31.6113 39.1494 31.8545 38.9468C32.7866 38.1362 33.6782 37.3662 33.7187 36.272V35.9477C33.7187 35.8667 33.6782 35.8262 33.6377 35.7451L33.6782 35.7856ZM34.4077 33.1514C35.0561 33.4351 35.6235 33.9214 35.9883 34.6103C36.1504 34.894 36.2314 35.2183 36.3125 35.5425C36.353 35.8262 36.3936 36.1099 36.353 36.4341C36.272 38.6631 34.9751 39.7573 33.5972 40.9731C33.1919 41.2974 32.8271 41.6621 32.4624 42.0268L32.4219 42.0674L32.3813 42.1079L32.3408 42.1484L32.2598 42.2295C32.2192 42.3105 32.1382 42.3511 32.0166 42.4321C31.7329 42.6348 31.3682 42.7158 31.0034 42.6348C30.6387 42.5537 30.5171 42.4321 30.355 42.27L30.3145 42.2295C29.9902 41.9458 29.7471 41.7432 29.4634 41.5405C27.437 39.9194 25.0054 37.9336 26.2212 35.0156C26.5859 34.1645 27.2344 33.5566 28.0044 33.2324C28.7744 32.9082 29.7065 32.9082 30.5171 33.2324C30.7197 33.3135 30.9224 33.3945 31.0845 33.5161C31.4897 33.2324 31.9761 33.0298 32.3003 32.9487C33.0298 32.7866 33.7593 32.8677 34.4077 33.1514ZM32.4219 35.7046V35.6641L32.4624 35.7046H32.4219ZM37.2041 26.4643C37.1636 26.4238 37.0825 26.3833 37.0015 26.3833C36.9204 26.3833 36.7988 26.3833 36.7178 26.4643C36.6772 26.5049 36.5962 26.5859 36.5151 26.748C36.5151 26.748 36.5151 26.7886 36.4746 26.7886C36.4746 27.3965 35.9883 27.9639 35.3804 28.0449C35.0967 28.0854 34.813 28.0449 34.6103 27.9233C34.5293 27.8828 34.4888 27.8423 34.4482 27.8018L34.4077 27.7612C34.3672 27.7207 34.2861 27.7207 34.2456 27.6802C34.2051 27.6802 34.1645 27.6396 34.1645 27.6396C34.0024 27.6396 33.8809 27.6802 33.7998 27.7612C33.7593 27.8018 33.7187 27.8828 33.7187 28.0044C33.7187 28.896 35.2588 29.3823 36.5557 29.7876C36.6367 29.6255 36.7178 29.4228 36.8394 29.2607C37.2852 28.3691 37.731 27.5586 37.4473 26.748C37.4067 26.667 37.4067 26.5859 37.3662 26.5454C37.3662 26.5049 37.3257 26.5049 37.2852 26.4643H37.2041ZM37.0825 23.7895C37.731 23.8301 38.3794 24.0327 38.8657 24.4785C39.1089 24.6811 39.3115 24.9243 39.4331 25.1675C39.5547 25.4106 39.6763 25.6133 39.7573 25.8564C40.4058 27.7207 39.7168 29.0176 39.0278 30.3955C38.8252 30.7602 38.6226 31.1655 38.501 31.5303C38.501 31.5708 38.4604 31.6113 38.4604 31.6113V31.6518C38.4604 31.6924 38.4199 31.7329 38.4199 31.7734L38.2983 32.0166C38.0957 32.3003 37.7715 32.5435 37.4067 32.584C37.0825 32.6245 36.8799 32.5435 36.7178 32.5029H36.6772C36.3936 32.3813 36.1099 32.3003 35.7856 32.2192C33.6377 31.5303 31.0439 30.7602 31.0845 27.9233C31.0845 27.0723 31.4492 26.3428 31.9761 25.8564C32.5435 25.3296 33.2729 25.0459 34.0835 25.0054C34.2456 25.0054 34.3672 25.0054 34.5293 25.0459C34.7725 24.7217 35.0561 24.438 35.2588 24.2759C35.8262 23.9111 36.4746 23.7085 37.0825 23.749V23.7895ZM36.5151 26.7075C36.5151 26.7075 36.4746 26.4238 36.4746 26.5454V26.7075H36.5151ZM26.8696 16.8999C26.7075 16.8594 26.5454 16.8594 26.3833 16.8999C26.2212 16.9404 26.0591 17.062 25.978 17.2241C25.9375 17.3052 25.8564 17.5078 25.8159 17.751C25.8159 17.832 25.6943 17.6699 25.7349 17.751C26.0996 18.3589 25.8564 19.1694 25.2485 19.5342C25.0054 19.6558 24.7622 19.7368 24.519 19.6963C24.438 19.6963 24.3975 19.6963 24.3164 19.6558C24.2759 19.6558 24.2353 19.6558 24.2353 19.6152H24.1948C24.0732 19.6152 23.9922 19.5747 23.8706 19.6152C23.7895 19.6152 23.7085 19.6152 23.668 19.6558C23.4248 19.7368 23.2222 19.9394 23.1411 20.1421C23.0601 20.3042 23.0601 20.5068 23.1411 20.7095C23.6274 21.9658 25.7754 21.7632 27.5991 21.6416H27.8018C27.8423 21.3174 27.8423 20.9932 27.8828 20.6689C28.0044 19.3721 28.126 18.1562 27.356 17.2646L27.1128 17.0215C27.0723 16.981 26.9912 16.9404 26.9102 16.8999H26.8696ZM25.5322 14.4683C26.2212 14.2251 26.9912 14.1846 27.7207 14.4277C28.0449 14.5493 28.3286 14.7114 28.6123 14.9141C28.8555 15.1167 29.0581 15.3193 29.2607 15.522C30.7603 17.2646 30.5981 19.0073 30.3955 20.8716C30.355 21.3984 30.2739 21.9253 30.2739 22.4521V22.7764C30.2739 22.8574 30.2739 22.9385 30.2334 23.0601C30.1523 23.4248 29.9497 23.749 29.585 23.9517C29.3013 24.1138 29.0986 24.1138 28.896 24.1138H28.7744C28.4907 24.1138 28.0854 24.1543 27.6802 24.1948C25.0054 24.3975 21.7632 24.6406 20.6284 21.6011C20.3042 20.7095 20.3447 19.8179 20.7095 19.0478C21.0742 18.2778 21.7632 17.6294 22.5737 17.2646C22.7764 17.1836 23.0195 17.1025 23.2222 17.062C23.3437 16.5757 23.5464 16.0488 23.749 15.7651C24.1543 15.1572 24.8027 14.6709 25.4512 14.4277L25.5322 14.4683ZM24.0732 28.6123C23.9111 28.4502 23.668 28.3286 23.4248 28.3286C23.1411 28.2881 22.8979 28.3691 22.6548 28.4907C22.6548 28.4907 22.6143 28.4907 22.6143 28.5312C22.4927 28.6123 22.29 28.8149 22.1279 29.0581C22.0469 29.1797 22.0063 29.1392 22.0063 29.1797C22.0469 29.9092 21.52 30.5171 20.7905 30.5576C20.5068 30.5981 20.2231 30.5171 19.98 30.355C19.8989 30.3144 19.8179 30.2334 19.7773 30.1929C19.6558 30.1118 19.4936 29.9902 19.3315 29.9497C19.21 29.9092 19.0884 29.8686 19.0073 29.8686C18.6426 29.8281 18.2778 29.9497 18.0347 30.1523C17.832 30.3144 17.6699 30.5576 17.6699 30.8818C17.5078 32.6245 20.0205 33.5972 22.0874 34.4482C22.2495 34.4888 22.3711 34.5698 22.5332 34.6103C22.7764 34.2051 22.979 33.7998 23.2222 33.4351C24.0732 32.0571 24.8433 30.8008 24.438 29.3418C24.3975 29.1797 24.3569 29.0176 24.2759 28.9365C24.2353 28.8555 24.1543 28.7339 24.0732 28.6528V28.6123ZM23.7085 25.7349C24.519 25.8159 25.2891 26.1807 25.897 26.7886C26.1807 27.0723 26.3833 27.356 26.5859 27.7207C26.748 28.0449 26.8696 28.3691 26.9507 28.6528C27.6396 31.1655 26.5859 32.9082 25.4106 34.7725C25.0864 35.2993 24.7217 35.8667 24.4785 36.4341C24.4785 36.4746 24.438 36.5151 24.438 36.5151L24.3975 36.5962C24.3975 36.6367 24.3569 36.6367 24.3569 36.6772V36.7178C24.3164 36.7988 24.2759 36.8799 24.1948 37.0015C23.9922 37.2852 23.6274 37.5283 23.2222 37.5283C22.8574 37.5688 22.6953 37.4473 22.4927 37.3662H22.4521C22.0874 37.2041 21.6416 37.042 21.1958 36.8799C18.2778 35.7451 14.833 34.3672 15.1167 30.6792C15.1978 29.6255 15.7246 28.7339 16.4541 28.1665C17.1836 27.5586 18.1968 27.2344 19.21 27.3154C19.5342 27.3154 19.8179 27.3965 20.1421 27.5181C20.4663 27.0723 20.9121 26.667 21.2769 26.4238C21.3174 26.3833 21.3579 26.3428 21.3984 26.3428C22.1279 25.9375 22.979 25.7754 23.749 25.8564L23.7085 25.7349ZM33.5566 46.647C33.3945 46.4849 33.1514 46.3633 32.9082 46.3633C32.6245 46.3228 32.3813 46.4038 32.1382 46.5254C32.1382 46.5254 32.0977 46.5254 32.0977 46.5659C31.9761 46.647 31.7734 46.8496 31.6113 47.0928C31.5303 47.2144 31.4897 47.1738 31.4897 47.2144C31.5303 47.9438 31.0034 48.5518 30.2739 48.5923C29.9902 48.6328 29.7065 48.5518 29.4634 48.3896C29.3823 48.3491 29.3013 48.2681 29.2607 48.2275C29.1392 48.1465 28.977 48.0249 28.8149 47.9844C28.6934 47.9438 28.5718 47.9033 28.4907 47.9033C28.126 47.8628 27.7612 47.9844 27.5181 48.187C27.3154 48.3491 27.1533 48.5923 27.1533 48.9165C26.9912 50.6592 29.5039 51.6318 31.5708 52.4829C31.7329 52.5234 31.8545 52.6045 32.0166 52.645C32.2598 52.2397 32.4624 51.8345 32.7056 51.4697C33.5566 50.0918 34.3267 48.8354 33.9214 47.3765C33.8809 47.2144 33.8403 47.0522 33.7593 46.9712C33.7187 46.8901 33.6377 46.7686 33.5566 46.6875V46.647ZM33.1919 43.7695C34.0024 43.8506 34.7725 44.2153 35.3804 44.8232C35.6641 45.1069 35.8667 45.3906 36.0693 45.7554C36.2314 46.0796 36.353 46.4038 36.4341 46.6875C37.123 49.2002 36.0693 50.9429 34.894 52.8071C34.5698 53.334 34.2051 53.9014 33.9619 54.4687C33.9619 54.5093 33.9214 54.5498 33.9214 54.5498L33.8809 54.6309C33.8809 54.6714 33.8403 54.7119 33.8403 54.7524C33.8403 54.7524 33.8403 54.793 33.7998 54.793C33.7998 54.8335 33.7593 54.874 33.7593 54.9145C33.5566 55.2793 33.1919 55.563 32.7056 55.6035C32.3408 55.644 32.1382 55.5225 31.9761 55.4414H31.9355C31.5708 55.2793 31.125 55.1172 30.6792 54.9551C27.7612 53.8203 24.3164 52.4424 24.6001 48.7544C24.6812 47.7007 25.208 46.8091 25.9375 46.2417C26.667 45.6338 27.6802 45.3096 28.6934 45.3906C29.0176 45.3906 29.3013 45.4717 29.6255 45.5933C29.9497 45.1475 30.3955 44.7422 30.7603 44.499C30.8008 44.4585 30.8413 44.418 30.8818 44.418C31.6113 44.0127 32.4624 43.8506 33.2324 43.9316L33.1919 43.7695ZM62.1689 39.8384C62.0879 39.7168 62.0068 39.6357 61.8447 39.5547C61.6826 39.4736 61.5205 39.4736 61.3584 39.5142C61.2773 39.5142 61.1152 39.6357 60.9126 39.7573C60.9126 39.7573 60.8721 39.7573 60.8721 39.7168L60.8315 39.6763C60.6694 40.3652 59.9805 40.7705 59.2915 40.6084C59.0078 40.5273 58.8052 40.4058 58.6025 40.2031L58.562 40.1626C58.5215 40.0815 58.481 40.041 58.4404 39.96L58.1973 39.7168C58.1567 39.6763 58.0757 39.6357 58.0352 39.6357C57.792 39.5547 57.5894 39.5547 57.3867 39.6357C57.2246 39.6763 57.103 39.7978 57.0625 39.96C56.5762 41.0947 58.1973 42.3916 59.5347 43.4858L59.6562 43.6074C59.8994 43.4048 60.102 43.2021 60.3452 42.9995C61.2773 42.189 62.1689 41.4189 62.2095 40.3247V40.0005C62.2095 39.9194 62.1689 39.8789 62.1284 39.7978L62.1689 39.8384ZM62.8984 37.2041C63.5469 37.4878 64.1143 37.9741 64.479 38.6631C64.6411 38.9468 64.7222 39.271 64.8032 39.5952C64.8437 39.8789 64.8843 40.1626 64.8437 40.4868C64.7627 42.7158 63.4658 43.8101 62.0879 45.0259C61.6826 45.3501 61.3179 45.7148 60.9531 46.0796L60.9126 46.1201L60.8721 46.1606C60.8721 46.1606 60.8721 46.2012 60.8315 46.2012L60.7505 46.2822C60.71 46.3228 60.6694 46.3633 60.5884 46.4038C60.3047 46.647 59.8994 46.7686 59.4941 46.647C59.1699 46.5659 59.0078 46.4443 58.8457 46.2822L58.8052 46.2417C58.481 45.958 58.2378 45.7554 57.9541 45.5527C55.9277 43.9316 53.4961 41.9458 54.7119 39.0278C55.0767 38.1768 55.7251 37.5688 56.4951 37.2446C57.2651 36.9204 58.1973 36.9204 59.0078 37.2446C59.2104 37.3257 59.4131 37.4067 59.5752 37.5283C59.9805 37.2446 60.4668 37.042 60.791 36.9609C61.5205 36.7988 62.25 36.8799 62.8984 37.1636V37.2041ZM60.9126 39.7573V39.7168L60.9531 39.7573H60.9126ZM60.6289 46.4038C60.6289 46.4038 60.5884 46.4443 60.5478 46.4443L60.6289 46.4038ZM62.8174 30.1929C62.7769 30.1523 62.6958 30.1118 62.6147 30.1118C62.5337 30.1118 62.4121 30.1118 62.3311 30.1929C62.2905 30.2334 62.2095 30.3144 62.1284 30.4766H62.0879C62.0879 31.125 61.6421 31.6924 60.9936 31.7734C60.71 31.814 60.4263 31.7734 60.2236 31.6518C60.1426 31.6113 60.102 31.5708 60.0615 31.5303L60.021 31.4897C59.9805 31.4492 59.8994 31.4492 59.8589 31.4087C59.8184 31.4087 59.7778 31.3682 59.7778 31.3682C59.6157 31.3682 59.4941 31.4087 59.4131 31.4897C59.3726 31.5303 59.332 31.6113 59.332 31.7329C59.332 32.6245 60.8721 33.1108 62.1689 33.5161C62.25 33.354 62.3311 33.1514 62.4526 32.9893C62.8984 32.0977 63.3442 31.2871 63.0605 30.4766C63.02 30.3955 63.02 30.3144 62.9795 30.2739C62.9795 30.2334 62.939 30.2334 62.8984 30.1929H62.8174ZM62.6958 27.5181C63.3442 27.5586 63.9927 27.7612 64.479 28.207C64.7222 28.4097 64.9248 28.6528 65.0464 28.896C65.168 29.1392 65.2895 29.3418 65.3706 29.585C66.019 31.4492 65.3301 32.7461 64.6411 34.124C64.4385 34.4888 64.2358 34.894 64.1143 35.2588C64.1143 35.2993 64.0737 35.3398 64.0737 35.3398V35.3804C64.0737 35.4209 64.0332 35.4614 64.0332 35.5019C63.9927 35.583 63.9521 35.6641 63.9116 35.7856C63.709 36.0693 63.3848 36.3125 63.02 36.353C62.6958 36.3935 62.4932 36.3125 62.3311 36.272H62.25C61.9663 36.1909 61.6826 36.1099 61.3989 35.9883C59.251 35.2993 56.6572 34.5293 56.6978 31.6924C56.6978 30.8413 57.0625 30.1118 57.5894 29.6255C58.1567 29.0986 58.8862 28.8149 59.6968 28.7744C59.8589 28.7744 59.9805 28.7744 60.1426 28.8149C60.3857 28.4907 60.6694 28.207 60.8721 28.0449C61.4394 27.6802 62.0879 27.4775 62.6958 27.5181ZM62.1284 30.436C62.1284 30.436 62.0879 30.1523 62.0879 30.2739V30.436H62.1284ZM50.5781 35.1777C50.2134 34.8535 49.7676 34.6509 49.2812 34.5698C48.7544 34.5293 48.2275 34.6103 47.7817 34.894L47.7412 34.9346C47.498 35.0967 47.1333 35.4614 46.8496 35.8667C46.6875 36.1099 46.5254 36.353 46.5659 36.4341C46.6064 37.1636 46.0796 37.7715 45.3501 37.812C45.0664 37.812 44.8232 37.7715 44.6206 37.6499C44.5801 37.6499 44.5801 37.6094 44.5395 37.6094C44.418 37.5283 44.3774 37.4878 44.2964 37.4067L44.2559 37.3662C44.0127 37.2041 43.7695 37.042 43.4858 36.9204C43.2832 36.8393 43.04 36.7583 42.8374 36.7583C42.1484 36.7178 41.5 36.9204 41.0137 37.3257C40.5679 37.6904 40.2842 38.1768 40.2437 38.8252C40.0005 41.8242 43.8506 43.3237 47.0522 44.6206C47.417 44.7827 47.8223 44.9043 48.187 45.0664C48.5923 44.2964 49.0381 43.6074 49.4434 42.9185C50.7402 40.811 51.9561 38.8657 51.3076 36.4746C51.2266 36.1909 51.1455 35.9477 51.0239 35.7451C50.9023 35.5425 50.7808 35.3804 50.6187 35.1777H50.5781ZM49.5649 32.0166C50.6187 32.1382 51.6318 32.584 52.4019 33.354C52.7666 33.7187 53.0503 34.124 53.2529 34.5293C53.4556 34.9346 53.6177 35.3804 53.7393 35.7856C54.6714 39.2305 53.1719 41.6216 51.5913 44.2153C51.105 45.0259 50.5781 45.8364 50.1729 46.6875C50.1729 46.728 50.1323 46.7686 50.1323 46.7686L50.0513 46.8901C50.0107 46.9712 50.0107 47.0117 49.9297 47.0928V47.0522L49.8081 47.2954C49.6055 47.6196 49.2407 47.8223 48.8354 47.8628C48.4707 47.9033 48.2681 47.7817 48.0654 47.7007H47.9844C47.4575 47.4575 46.8091 47.2144 46.1201 46.9307C42.0674 45.3501 37.2446 43.4453 37.6499 38.501C37.7715 37.123 38.4199 35.9883 39.3926 35.2183C40.3652 34.4077 41.6621 34.0024 42.9995 34.0835C43.4858 34.124 43.9722 34.2456 44.4585 34.4077C44.499 34.4077 44.5395 34.4482 44.6206 34.4482C44.6611 34.3672 44.7017 34.3267 44.7422 34.2456C45.2285 33.5566 45.877 32.9082 46.4038 32.5435C46.4443 32.5029 46.4849 32.5029 46.5254 32.4624C47.4575 31.895 48.5518 31.6924 49.6055 31.814L49.5649 32.0166ZM53.0098 50.2944C52.9692 50.2539 52.8882 50.2134 52.8071 50.2134C52.7261 50.2134 52.6045 50.2134 52.5234 50.2944C52.4829 50.335 52.4019 50.416 52.3208 50.5781H52.2803C52.2803 51.2266 51.8345 51.7939 51.186 51.875C50.8618 51.9155 50.5781 51.8345 50.2944 51.6724C50.2134 51.6318 50.2134 51.6318 50.1729 51.5913H50.1323C50.0918 51.5508 50.0107 51.5508 49.9702 51.5103C49.9297 51.5103 49.8892 51.4697 49.8892 51.4697C49.7271 51.4697 49.6055 51.5103 49.5244 51.5913C49.4839 51.6318 49.4434 51.7129 49.4434 51.8345C49.4434 52.7261 50.9834 53.2124 52.2803 53.6177C52.3613 53.4556 52.4424 53.2529 52.564 53.0908C53.0098 52.1992 53.4556 51.3887 53.1719 50.5781C53.1313 50.4971 53.1313 50.416 53.0908 50.3755C53.0908 50.335 53.0503 50.335 53.0098 50.2944ZM52.8882 47.6196C53.5366 47.6602 54.1851 47.8628 54.6714 48.3086C54.9146 48.5112 55.1172 48.7544 55.2388 48.9976C55.3604 49.2407 55.4819 49.4434 55.563 49.6865C56.2114 51.5508 55.5225 52.8477 54.8335 54.2256C54.6309 54.5903 54.4282 54.9956 54.3066 55.3603C54.3066 55.4009 54.2661 55.4414 54.2661 55.4414C54.2661 55.4819 54.2256 55.5225 54.2256 55.563C54.1851 55.644 54.1445 55.7251 54.104 55.8467C53.9014 56.1304 53.5771 56.3735 53.2124 56.4141C52.8882 56.4546 52.7261 56.4141 52.564 56.333C52.564 56.333 52.5234 56.333 52.4829 56.2925C52.1992 56.1709 51.9155 56.0898 51.6318 56.0088C49.4839 55.3198 46.8901 54.5498 46.9307 51.7129C46.9307 50.8618 47.2954 50.1323 47.8223 49.646C48.3896 49.1191 49.1191 48.8354 49.9297 48.7949C50.0918 48.7949 50.2134 48.7949 50.3755 48.8354C50.6187 48.5112 50.9023 48.2275 51.105 48.0654C51.6724 47.7007 52.3208 47.498 52.9287 47.5386L52.8882 47.6196ZM52.3208 50.5376C52.3208 50.5376 52.2803 50.2539 52.2803 50.3755V50.5376H52.3208ZM43.6074 56.0493C43.5264 55.9277 43.4453 55.8467 43.2832 55.7656C43.1211 55.6846 42.959 55.6846 42.7969 55.7251C42.7158 55.7251 42.5537 55.8467 42.3511 55.9683C42.3511 55.9683 42.3105 55.9683 42.3105 55.9277L42.27 55.8872C42.1079 56.5762 41.4189 56.9814 40.73 56.8193C40.4463 56.7383 40.2437 56.6167 40.041 56.4141L40.0005 56.3735C39.96 56.2925 39.9194 56.2519 39.8789 56.1709L39.6357 55.9277C39.5952 55.8872 39.5142 55.8467 39.4736 55.8467C39.2305 55.7656 39.0278 55.7656 38.8252 55.8467C38.6631 55.8872 38.5415 56.0088 38.501 56.1709C38.0146 57.3057 39.6357 58.6025 40.9731 59.6968L41.0947 59.8184C41.3379 59.6157 41.5405 59.4131 41.7837 59.2104C42.7158 58.3999 43.6074 57.6299 43.6479 56.5356V56.2114C43.6479 56.1304 43.6074 56.0898 43.5669 56.0088L43.6074 56.0493ZM44.3369 53.415C44.9853 53.6987 45.5527 54.1851 45.9175 54.874C46.0796 55.1577 46.1606 55.4819 46.2417 55.8061C46.2822 56.0898 46.3228 56.3735 46.2822 56.6978C46.2012 58.9268 44.9043 60.021 43.5264 61.2368C43.1211 61.561 42.7563 61.9258 42.3916 62.2905L42.3511 62.3311L42.3105 62.3716C42.3105 62.3716 42.3105 62.4121 42.27 62.4121L42.189 62.4932C42.1484 62.5337 42.1079 62.5742 42.0269 62.6147C41.7432 62.8579 41.3379 62.9795 40.9326 62.8579C40.6084 62.7769 40.4463 62.6553 40.2842 62.4932L40.2437 62.4526C39.9194 62.1689 39.6763 61.9663 39.3926 61.7637C37.3662 60.1426 34.9346 58.1567 36.1504 55.2388C36.5151 54.3877 37.1636 53.7798 37.9336 53.4556C38.7036 53.1313 39.6357 53.1313 40.4463 53.4556C40.6489 53.5366 40.8516 53.6177 41.0137 53.7393C41.4189 53.4556 41.9053 53.2529 42.2295 53.1719C42.959 53.0098 43.6885 53.0908 44.3369 53.3745V53.415ZM42.3511 55.9683V55.9277L42.3916 55.9683H42.3511ZM42.0674 62.6147C42.0674 62.6147 42.0269 62.6553 41.9863 62.6553L42.0674 62.6147ZM56.4951 15.8462C57.1436 15.3193 57.9541 15.0356 58.7646 15.0356C59.5752 15.0356 60.3857 15.2788 61.0747 15.7651C61.4394 16.0083 61.8853 16.5352 62.2095 17.062C62.4932 16.981 62.8174 16.9404 63.1416 16.981C64.1548 17.0215 65.1274 17.4268 65.8164 18.1157C66.5054 18.7642 66.9106 19.6963 66.9106 20.75C66.8701 24.438 63.3037 25.4917 60.3047 26.3428C59.8184 26.4643 59.3726 26.6265 59.0078 26.748H58.9268C58.7241 26.8291 58.5215 26.8696 58.1973 26.8291C57.8325 26.748 57.5083 26.5454 57.3057 26.2212C57.2246 26.0996 57.1841 26.0185 57.1841 25.9375C57.1841 25.897 57.1436 25.8564 57.1436 25.8159V25.7754L57.103 25.6943C57.103 25.6538 57.0625 25.6133 57.0625 25.5727C56.8599 25.0054 56.5762 24.438 56.2925 23.8706C55.3198 21.9253 54.4282 20.1016 55.3604 17.6294C55.4819 17.3052 55.644 17.0215 55.8062 16.6973C56.0088 16.373 56.252 16.1299 56.5762 15.8462H56.4951ZM58.8052 17.6294C58.562 17.6294 58.3188 17.7104 58.1162 17.8726L57.873 18.1157C57.792 18.2373 57.7515 18.3589 57.6704 18.521C57.1436 19.9394 57.792 21.2768 58.5215 22.6953C58.7241 23.1006 58.9268 23.5059 59.0889 23.9517C59.251 23.9111 59.3726 23.8706 59.5347 23.8301C61.6826 23.2222 64.2764 22.4521 64.2764 20.7095C64.2764 20.3852 64.1548 20.1421 63.9521 19.9394C63.709 19.6963 63.3848 19.5747 63.02 19.5747C62.939 19.5747 62.8174 19.5747 62.6958 19.6152C62.5337 19.6558 62.4121 19.7368 62.25 19.8179L62.2095 19.8584C62.1689 19.8989 62.1284 19.8989 62.0879 19.9394C62.0474 19.98 61.9663 20.0205 61.8853 20.061C61.6421 20.1421 61.3989 20.1826 61.1558 20.1421C60.4668 20.0205 59.9805 19.3721 60.102 18.6426C60.102 18.602 60.0615 18.6426 59.9805 18.521C59.8184 18.2373 59.6157 17.9941 59.4941 17.9131C59.2915 17.751 59.0078 17.6699 58.7241 17.6699L58.8052 17.6294Z" fill="#FFFFFE"/>
</g>
</g>
</g>
<defs>
<clipPath id="clip0_109_102">
<rect width="83" height="83" rx="10" fill="white"/>
</clipPath>
</defs>
</svg>
