<svg width="81" height="83" viewBox="0 0 81 83" fill="none" xmlns="http://www.w3.org/2000/svg">
<g id="Frame">
<g clip-path="url(#clip0_109_66)">
<g id="Layer_x0020_1">
<path id="Vector" fill-rule="evenodd" clip-rule="evenodd" d="M0 0H81V83H0V0Z" fill="#1F1F1F"/>
<g id="_489950848">
<path id="_489950944" d="M41.2277 22.5073C46.4554 22.5073 51.1883 24.6788 54.6144 28.1894C58.0404 31.7 60.1595 36.5499 60.1595 41.9066C60.1595 47.2634 58.0405 52.1132 54.6144 55.6237C51.1884 59.1344 46.4554 61.3058 41.2277 61.3058C36 61.3058 31.2669 59.1344 27.841 55.6238C24.4151 52.1133 22.296 47.2634 22.296 41.9066C22.296 36.5499 24.415 31.7 27.8411 28.1893C31.2671 24.6787 36 22.5073 41.2277 22.5073ZM53.0433 29.7993C50.0195 26.7009 45.8421 24.7844 41.2277 24.7844C36.6134 24.7844 32.436 26.7008 29.4122 29.7993C26.3884 32.8977 24.5181 37.1784 24.5181 41.9066C24.5181 46.6349 26.3884 50.9156 29.4121 54.014C32.4358 57.1124 36.6133 59.0288 41.2277 59.0288C45.842 59.0288 50.0195 57.1123 53.0433 54.0139C56.0671 50.9154 57.9373 46.6349 57.9373 41.9066C57.9373 37.1783 56.067 32.8978 53.0432 29.7993L53.0433 29.7993Z" fill="#FFFFFE"/>
<path id="_489950896" d="M41.2277 28.6592C44.7975 28.6592 48.0296 30.1421 50.3692 32.5394C52.7087 34.9367 54.1558 38.2486 54.1558 41.9065C54.1558 45.5645 52.7087 48.8763 50.3692 51.2736C48.0296 53.6709 44.7975 55.1538 41.2277 55.1538C37.6579 55.1538 34.4258 53.6709 32.0863 51.2736C29.7468 48.8763 28.2996 45.5644 28.2996 41.9066C28.2996 38.2486 29.7468 34.9367 32.0863 32.5394C34.4258 30.1421 37.658 28.6592 41.2277 28.6592ZM48.7981 34.1493C46.8608 32.1641 44.1842 30.9363 41.2277 30.9363C38.2713 30.9363 35.5947 32.1641 33.6574 34.1493C31.7201 36.1344 30.5218 38.8771 30.5218 41.9065C30.5218 44.9359 31.7201 47.6786 33.6574 49.6637C35.5947 51.6489 38.2713 52.8768 41.2277 52.8768C44.1842 52.8768 46.8608 51.6489 48.7981 49.6637C50.7354 47.6786 51.9337 44.936 51.9337 41.9065C51.9337 38.8771 50.7354 36.1344 48.7981 34.1493Z" fill="#FFFFFE"/>
</g>
<g id="_489950584">
<path id="_489950776" d="M18.3942 32.0814C19.6746 31.7714 20.765 30.8843 21.4982 29.6611C22.2556 28.3976 22.6331 26.7872 22.462 25.072V25.0568C22.2602 22.7917 21.4817 20.0703 20.3221 18.0572C19.5032 16.6356 18.5437 15.6232 17.5753 15.5703C16.6081 15.6232 15.6504 16.6339 14.8326 18.0535C13.6726 20.0673 12.8936 22.7905 12.6886 25.0567V25.0669C12.5173 26.8099 12.9053 28.4405 13.6798 29.7076C14.4284 30.9323 15.5401 31.812 16.8448 32.0987C16.9882 32.1301 17.3049 32.1448 17.6401 32.1412C17.9441 32.138 18.237 32.1184 18.3893 32.0814L18.3942 32.0814ZM23.6538 31.0087C22.5733 32.8111 20.9303 34.1275 18.9724 34.6032L18.9727 34.6043C18.6594 34.6806 18.1535 34.7197 17.6599 34.725C17.1504 34.7304 16.6231 34.6979 16.3208 34.6318C14.3271 34.1935 12.6505 32.8859 11.544 31.0755C10.4831 29.34 9.94868 27.1377 10.1772 24.8136L10.1781 24.8137C10.4157 22.2037 11.3162 19.0645 12.6573 16.7363C13.8992 14.5804 15.5604 13.0464 17.5407 12.985H17.6099C19.5911 13.0464 21.2546 14.5822 22.4975 16.74C23.8377 19.0667 24.7374 22.2013 24.9721 24.8087L24.9735 24.8086C25.2031 27.1089 24.6865 29.2859 23.6538 31.0087H23.6538Z" fill="#FFFFFE"/>
<path id="_489950680" d="M16.9597 67.1218C16.9589 67.1398 16.9584 67.1188 16.9584 67.1308C16.9592 67.2624 17.0399 67.4394 17.1753 67.6033C17.2873 67.7389 17.4222 67.8382 17.551 67.844C17.5717 67.8449 17.5623 67.8455 17.5704 67.8455H17.5803C17.5906 67.8455 17.5759 67.8448 17.5993 67.8437C17.7292 67.8374 17.8648 67.7376 17.977 67.6016C18.1115 67.4387 18.1918 67.2635 18.1925 67.1339C18.1925 67.1199 18.1919 67.146 18.191 67.1269V67.1066L17.6002 49.2683C17.5841 49.2705 17.5682 49.2744 17.5526 49.2796L16.9597 67.1066V67.1218ZM14.437 67.1409C14.4365 67.0974 14.4369 67.0538 14.4383 67.0103H14.4388L15.0348 49.09V49.0292C15.1193 47.9535 15.7665 47.2362 16.5765 46.895C16.9101 46.7543 17.2748 46.6828 17.636 46.6821C18.0041 46.6814 18.3734 46.7549 18.7085 46.9046C19.4742 47.2467 20.0559 47.9367 20.1161 48.9902V49.0206L20.7118 67.0054L20.7124 67.0053C20.7137 67.0342 20.7142 67.081 20.7139 67.1441C20.7099 67.8654 20.4088 68.6635 19.9052 69.2734C19.3794 69.9103 18.6199 70.3834 17.7179 70.4274C17.6871 70.4289 17.6391 70.4295 17.5755 70.4292C17.5311 70.4297 17.4867 70.4292 17.4423 70.4276C16.5365 70.3867 15.7745 69.9137 15.2471 69.275C14.743 68.6646 14.4416 67.8647 14.437 67.1409Z" fill="#FFFFFE"/>
<path id="_489950632" d="M18.8063 33.4962V47.7639H16.275V33.4962H18.8063Z" fill="#FFFFFE"/>
</g>
<path id="Vector_2" d="M64.9123 66.9949C64.9115 67.0146 64.9111 67.0048 64.9111 67.0126C64.9121 67.1733 64.9991 67.3795 65.1448 67.563C65.2563 67.7035 65.3863 67.8061 65.5044 67.8111C65.5242 67.812 65.5161 67.8125 65.5231 67.8125H65.533C65.5424 67.8125 65.5295 67.8119 65.5508 67.8109C65.6702 67.8053 65.8009 67.7024 65.9128 67.5616C66.0577 67.379 66.1443 67.1745 66.1452 67.0159C66.1452 67.0061 66.1447 67.0208 66.1437 67.0001V66.9849L65.5512 48.3316C65.537 48.3346 65.5224 48.3393 65.5079 48.3456L65.5069 48.3433L64.9123 66.9849V66.995V66.9949ZM62.3897 67.0227C62.3894 66.9656 62.3898 66.9225 62.3909 66.8937H62.3912L62.9875 48.2013V48.1456C63.07 47.0488 63.714 46.3147 64.5191 45.9646C64.8539 45.819 65.2215 45.7448 65.5877 45.7439C65.9571 45.7429 66.3276 45.8188 66.6647 45.9735C67.4287 46.324 68.0102 47.0284 68.0688 48.0985V48.1289L68.6647 66.8886H68.6651C68.6664 66.9184 68.6669 66.9648 68.6666 67.026C68.6623 67.7567 68.3659 68.5691 67.8706 69.1929C67.3421 69.8584 66.575 70.3517 65.6596 70.3946C65.6307 70.3959 65.5868 70.3964 65.5283 70.3962C65.4874 70.3966 65.4464 70.3961 65.4056 70.3948C64.4864 70.355 63.7169 69.8617 63.1869 69.1944C62.6911 68.57 62.3944 67.7558 62.3897 67.0227ZM65.5079 48.3456L65.5087 48.3381L65.5071 48.338L65.5069 48.3433L65.5079 48.3456Z" fill="#FFFFFE"/>
<path id="Vector_3" d="M66.7937 13.8624C66.7937 13.1462 66.2271 12.5655 65.5281 12.5655C64.8291 12.5655 64.2624 13.1462 64.2624 13.8624V46.8164C64.2624 47.5326 64.8291 48.1133 65.5281 48.1133C66.2271 48.1133 66.7937 47.5326 66.7937 46.8164V13.8624Z" fill="#FFFFFE"/>
<path id="Vector_4" d="M65.5329 33.164C65.7391 33.1634 65.9419 33.1109 66.1236 33.0109L65.8578 30.6251C65.7518 30.5957 65.6426 30.5807 65.5329 30.5804L65.5279 31.8721L65.5329 33.164ZM66.1236 33.0109C66.3204 32.9024 66.4857 32.7426 66.6027 32.5476L65.9306 30.6476C65.9066 30.6394 65.8823 30.6318 65.8578 30.6251L66.1236 33.0109ZM66.6027 32.5476C66.7255 32.343 66.7899 32.1073 66.7886 31.8671C66.7864 31.2996 66.4276 30.8191 65.9306 30.6476L66.6027 32.5476ZM65.5279 30.5804L65.523 30.5803C65.4295 30.5807 65.3193 30.5741 65.2053 30.5605C65.1613 30.5552 65.171 30.5654 65.1563 30.56C64.4204 30.2873 63.8013 29.437 63.3625 28.2358C62.8438 26.8164 62.6129 24.9723 62.7426 22.9837L62.7447 22.9838C62.7468 22.9523 62.7477 22.9206 62.7475 22.889L62.8076 21.8636C62.9339 19.7094 63.0809 17.2047 63.1702 15.2675C63.2029 14.554 62.665 13.9484 61.9688 13.9148C61.2725 13.8813 60.6815 14.4324 60.6488 15.1459C60.566 16.9413 60.4156 19.5057 60.2862 21.7116L60.2263 22.7346C60.2232 22.7598 60.2207 22.7852 60.219 22.8108L60.2218 22.811V22.8113H60.2212C60.0681 25.1586 60.3576 27.3816 60.9993 29.1376C61.6955 31.0432 62.8245 32.4466 64.296 32.9917C64.4815 33.0607 64.697 33.1074 64.9185 33.1341C65.0927 33.155 65.3062 33.1648 65.5279 33.164C65.7497 33.1648 65.9632 33.155 66.1373 33.134C66.3588 33.1074 66.5744 33.0607 66.7599 32.9918C68.2313 32.4467 69.3603 31.0432 70.0566 29.1376C70.6983 27.3817 70.9878 25.1586 70.8347 22.8112L70.8341 22.8113V22.8111L70.8368 22.8109C70.8351 22.7854 70.8327 22.76 70.8296 22.7347L70.7694 21.7068C70.6401 19.502 70.4898 16.9401 70.4072 15.1458C70.3744 14.4324 69.7834 13.8813 69.0871 13.9148C68.3908 13.9484 67.853 14.554 67.8857 15.2675C67.9749 17.2031 68.1217 19.7056 68.248 21.8588L68.3083 22.889C68.3082 22.9207 68.3091 22.9523 68.3111 22.9839L68.3133 22.9837C68.4429 24.9725 68.212 26.8165 67.6934 28.2359C67.2545 29.4371 66.6356 30.2874 65.8996 30.56C65.8849 30.5654 65.8945 30.5553 65.8506 30.5605C65.7366 30.5742 65.6263 30.5807 65.5329 30.5804H65.5279ZM65.523 30.5804L65.5279 31.8721L65.523 33.164C65.3168 33.1634 65.1139 33.1109 64.9323 33.0109L65.1981 30.6251C65.1736 30.6318 65.1493 30.6394 65.1253 30.6477L64.4531 32.5475C64.5702 32.7425 64.7355 32.9024 64.9323 33.0109L65.1981 30.6251C65.304 30.5957 65.4133 30.5807 65.523 30.5803V30.5804ZM65.1253 30.6477L64.4531 32.5475C64.3304 32.3429 64.266 32.1072 64.2673 31.8671C64.2694 31.2996 64.6283 30.8191 65.1253 30.6476V30.6477Z" fill="#FFFFFE"/>
</g>
</g>
</g>
<defs>
<clipPath id="clip0_109_66">
<rect width="81" height="83" rx="10" fill="white"/>
</clipPath>
</defs>
</svg>
