<svg width="85" height="85" viewBox="0 0 85 85" fill="none" xmlns="http://www.w3.org/2000/svg">
<g id="Frame">
<rect width="85" height="85" rx="10" fill="#1F1F1F"/>
<g id="Toilets">
<path id="Vector" d="M74.375 44.2708C74.3779 47.3708 73.7026 50.4338 72.3964 53.2451C71.0901 56.0564 69.1846 58.5479 66.8135 60.5448C60.7219 65.6448 55.0198 65.5208 49.5833 65.5208C43.9475 65.5208 38.5425 63.282 34.5573 59.2968C30.5722 55.3117 28.3333 49.9067 28.3333 44.2708H74.375Z" fill="#DAD7E5"/>
<path id="Vector_2" d="M74.375 44.2708C74.3779 47.3708 73.7026 50.4338 72.3964 53.2451C71.0901 56.0564 69.1846 58.5479 66.8135 60.5448C63.1954 61.8076 59.3524 62.2963 55.5333 61.9791C50.5122 61.9782 45.6536 60.1994 41.8189 56.9579C37.9842 53.7164 35.4212 49.2217 34.5844 44.2708H74.375Z" fill="#EDEBF2"/>
<path id="Vector_3" d="M10.625 1.77083H28.3333V8.85416H10.625V1.77083Z" fill="#C6C3D8"/>
<path id="Vector_4" d="M28.3333 1.77083V8.85416H23.0208C21.1422 8.85416 19.3405 8.10788 18.0122 6.7795C16.6838 5.45112 15.9375 3.64945 15.9375 1.77083H28.3333ZM10.625 8.85416H28.3333V44.2708H10.625V8.85416Z" fill="#DAD7E5"/>
<path id="Vector_5" d="M28.3333 8.85416C28.3333 42.075 28.1562 40.7292 28.3333 40.7292C25.0458 40.7292 21.8928 39.4232 19.5682 37.0985C17.2435 34.7738 15.9375 31.6209 15.9375 28.3333V8.85416H28.3333Z" fill="#EDEBF2"/>
<path id="Vector_6" d="M63.75 83.2291H14.1667C19.8333 69.0625 19.0896 56.826 15.9375 44.2708H28.3333C28.3333 49.9067 30.5722 55.3117 34.5573 59.2968C38.5425 63.282 43.9475 65.5208 49.5833 65.5208C53.8156 65.5208 56.8792 65.7333 61.3417 63.8916C59.4867 69.4776 59.9196 75.5709 62.5458 80.8385L63.75 83.2291Z" fill="#C6C3D8"/>
<path id="Vector_7" d="M14.1667 83.2292C18.6716 71.9768 19.5931 59.6081 16.8052 47.8125H24.7917C24.7917 53.4483 27.0305 58.8534 31.0156 62.8385C35.0008 66.8237 40.4058 69.0625 46.0417 69.0625C50.274 69.0625 53.3375 69.275 57.8 67.4333C56.0743 72.5995 56.3011 78.2189 58.4375 83.2292H14.1667ZM74.375 44.2708H28.3333V37.1875H67.2917C69.1703 37.1875 70.972 37.9338 72.3003 39.2622C73.6287 40.5905 74.375 42.3922 74.375 44.2708Z" fill="#DAD7E5"/>
<path id="Vector_8" d="M73.4188 40.7292H37.1875C36.2482 40.7292 35.3474 40.356 34.6832 39.6918C34.019 39.0276 33.6458 38.1268 33.6458 37.1875C33.6458 37.0104 31.999 37.1875 67.2917 37.1875C68.5338 37.1888 69.7538 37.5167 70.8292 38.1383C71.9046 38.7599 72.7977 39.6534 73.4188 40.7292Z" fill="#EDEBF2"/>
<path id="Vector_9" d="M31.875 19.4791H24.2958C23.906 18.804 23.3043 18.2763 22.584 17.9779C21.8637 17.6796 21.0651 17.6272 20.312 17.829C19.5589 18.0308 18.8935 18.4754 18.4189 19.094C17.9443 19.7125 17.687 20.4703 17.687 21.25C17.687 22.0296 17.9443 22.7875 18.4189 23.406C18.8935 24.0245 19.5589 24.4692 20.312 24.671C21.0651 24.8728 21.8637 24.8204 22.584 24.5221C23.3043 24.2237 23.906 23.696 24.2958 23.0208H31.875C32.3447 23.0208 32.7951 22.8342 33.1272 22.5021C33.4593 22.1701 33.6458 21.7196 33.6458 21.25C33.6458 20.7803 33.4593 20.3299 33.1272 19.9978C32.7951 19.6657 32.3447 19.4791 31.875 19.4791Z" fill="#C6C3D8"/>
</g>
</g>
</svg>
