<svg width="201" height="201" viewBox="0 0 201 201" fill="none" xmlns="http://www.w3.org/2000/svg">
<g id="Frame" clip-path="url(#clip0_111_236)">
<g id="Layer_x0020_1">
<path id="Vector" fill-rule="evenodd" clip-rule="evenodd" d="M60.562 137.111L94.803 102.841H46.371C46.9599 116.031 52.2005 127.984 60.562 137.111ZM78.9338 106.344C79.8872 107.271 80.5409 108.463 80.8105 109.766C81.08 111.068 80.9531 112.421 80.4461 113.651C79.939 114.88 79.0752 115.93 77.9659 116.664C76.8567 117.397 75.553 117.782 74.2231 117.768C72.8907 117.788 71.5828 117.408 70.469 116.676C69.3551 115.945 68.4866 114.896 67.9759 113.665C67.4651 112.434 67.3357 111.078 67.6044 109.773C67.8731 108.468 68.5276 107.273 69.4829 106.344C70.1015 105.72 70.8376 105.225 71.6487 104.887C72.4597 104.549 73.3297 104.375 74.2084 104.375C75.087 104.375 75.957 104.549 76.7681 104.887C77.5791 105.225 78.3152 105.72 78.9338 106.344ZM50.434 107.257C50.6379 106.899 50.9753 106.636 51.3725 106.525C51.7697 106.415 52.1944 106.466 52.5538 106.668C54.2615 107.551 54.7325 107.404 55.233 107.257C56.3518 106.874 57.4412 106.521 60.2382 108.022C60.6013 108.222 60.8704 108.557 60.9863 108.954C61.1023 109.352 61.0556 109.779 60.8565 110.142C60.6573 110.505 60.3221 110.774 59.9246 110.89C59.527 111.006 59.0997 110.96 58.7366 110.761C57.1468 109.907 56.6757 110.054 56.2046 110.231C55.0858 110.584 53.9376 110.967 51.0523 109.377C50.8724 109.278 50.7137 109.145 50.5853 108.985C50.4568 108.825 50.3612 108.642 50.3037 108.445C50.2463 108.248 50.2283 108.042 50.2506 107.838C50.273 107.634 50.3353 107.437 50.434 107.257ZM59.0311 121.271C60.4443 120.005 62.3874 122.272 63.5651 124.009C62.3542 124.176 61.1208 124.003 60.0026 123.509C59.5601 123.313 59.16 123.033 58.825 122.684C58.6189 122.478 58.5305 122.272 58.5011 122.096C58.5011 121.89 58.6483 121.625 59.0311 121.271ZM46.371 98.1299H94.803L60.562 63.889C52.2005 73.016 46.9304 84.9694 46.371 98.1299ZM80.082 91.4466C80.082 91.6527 79.9348 91.9177 79.5521 92.271C78.1389 93.537 76.1957 91.27 75.018 89.5623C76.2289 89.3958 77.4623 89.5691 78.5805 90.0628C79.0206 90.2495 79.4205 90.5194 79.7582 90.8578C79.9643 91.0639 80.0526 91.27 80.082 91.4466ZM69.1002 80.082C69.9834 80.082 70.6606 80.7886 70.6606 81.6424C70.6606 84.9399 69.7774 85.7643 68.8941 86.5887C68.5408 86.9126 68.1875 87.2659 68.1875 89.0618C68.1875 89.4757 68.0231 89.8726 67.7305 90.1652C67.4378 90.4578 67.0409 90.6222 66.6271 90.6222C66.2132 90.6222 65.8163 90.4578 65.5237 90.1652C65.231 89.8726 65.0667 89.4757 65.0667 89.0618C65.0667 85.9115 65.9205 85.0872 66.7743 84.2922C67.157 83.9389 67.5103 83.5856 67.5103 81.6424C67.5103 80.7592 68.2169 80.082 69.1002 80.082ZM62.2402 71.8972L64.6839 75.3124C64.926 75.6482 65.0247 76.0664 64.9585 76.475C64.8922 76.8835 64.6664 77.2491 64.3306 77.4911C63.9948 77.7332 63.5767 77.832 63.1681 77.7657C62.7595 77.6995 62.394 77.4736 62.1519 77.1378L59.7082 73.7226C59.5884 73.5563 59.5024 73.3681 59.4553 73.1686C59.4082 72.9692 59.4008 72.7624 59.4336 72.5601C59.4999 72.1515 59.7258 71.7859 60.0615 71.5439C60.3973 71.3018 60.8155 71.203 61.224 71.2693C61.4264 71.3021 61.6202 71.3744 61.7946 71.4822C61.9689 71.5899 62.1204 71.7309 62.2402 71.8972ZM55.3803 82.4079C56.7102 82.3936 58.0139 82.7782 59.1231 83.512C60.2323 84.2458 61.0962 85.2952 61.6032 86.5248C62.1103 87.7543 62.2372 89.1076 61.9676 90.41C61.6981 91.7124 61.0444 92.9041 60.091 93.8314C59.1637 94.7848 57.972 95.4385 56.6696 95.7081C55.3672 95.9776 54.0139 95.8507 52.7843 95.3437C51.5548 94.8366 50.5054 93.9728 49.7716 92.8635C49.0378 91.7543 48.6532 90.4506 48.6675 89.1207C48.6596 88.237 48.8279 87.3605 49.1625 86.5426C49.497 85.7246 49.9912 84.9815 50.6161 84.3566C51.241 83.7316 51.9842 83.2375 52.8021 82.9029C53.6201 82.5683 54.4965 82.4001 55.3803 82.4079ZM137.111 140.438L102.841 106.168V154.629C116.031 154.04 127.984 148.77 137.111 140.438ZM107.169 122.066C108.096 121.113 109.288 120.459 110.59 120.19C111.892 119.92 113.246 120.047 114.475 120.554C115.705 121.061 116.754 121.925 117.488 123.034C118.222 124.143 118.606 125.447 118.592 126.777C118.606 128.107 118.222 129.411 117.488 130.52C116.754 131.629 115.705 132.493 114.475 133C113.246 133.507 111.892 133.634 110.59 133.364C109.288 133.095 108.096 132.441 107.169 131.488C106.549 130.87 106.057 130.135 105.722 129.327C105.387 128.519 105.214 127.652 105.214 126.777C105.214 125.902 105.387 125.035 105.722 124.227C106.057 123.419 106.549 122.684 107.169 122.066ZM125.216 135.727C125.529 135.454 125.937 135.316 126.351 135.344C126.765 135.371 127.151 135.562 127.425 135.874C127.698 136.187 127.836 136.595 127.808 137.009C127.781 137.423 127.59 137.809 127.277 138.083L124.186 140.85C123.878 141.127 123.472 141.271 123.058 141.249C122.643 141.226 122.255 141.041 121.978 140.732C121.701 140.424 121.557 140.018 121.579 139.604C121.602 139.19 121.787 138.801 122.096 138.524L125.216 135.727ZM112.321 142.941C113.522 142.78 114.745 142.953 115.854 143.441C116.307 143.633 116.717 143.913 117.061 144.265C117.238 144.472 117.355 144.648 117.355 144.825C117.385 145.031 117.238 145.325 116.855 145.649C115.412 146.915 113.469 144.648 112.321 142.941ZM154.629 102.841H106.168L140.438 137.111C148.77 127.984 154.04 116.031 154.629 102.841ZM130.339 111.084C130.331 109.761 130.718 108.464 131.45 107.362C132.183 106.259 133.228 105.4 134.451 104.894C135.674 104.388 137.021 104.259 138.318 104.522C139.615 104.786 140.804 105.431 141.733 106.374C142.676 107.303 143.321 108.492 143.585 109.789C143.848 111.086 143.719 112.433 143.213 113.656C142.707 114.88 141.848 115.924 140.745 116.657C139.643 117.389 138.346 117.776 137.023 117.768C136.144 117.772 135.273 117.601 134.461 117.267C133.648 116.932 132.91 116.44 132.288 115.819C131.667 115.197 131.175 114.459 130.84 113.647C130.506 112.834 130.335 111.963 130.339 111.084ZM140.644 119.799C141.527 119.799 142.204 120.506 142.204 121.36C142.204 124.657 141.321 125.481 140.438 126.306C140.114 126.6 139.761 126.954 139.761 128.75C139.761 129.167 139.595 129.568 139.299 129.863C139.004 130.159 138.603 130.325 138.186 130.325C137.768 130.325 137.367 130.159 137.072 129.863C136.776 129.568 136.611 129.167 136.611 128.75C136.611 125.599 137.494 124.804 138.318 124.009C138.701 123.656 139.084 123.303 139.084 121.36C139.084 120.476 139.79 119.799 140.644 119.799ZM125.216 107.463C125.352 107.617 125.456 107.797 125.523 107.992C125.589 108.187 125.616 108.392 125.602 108.598C125.588 108.803 125.534 109.003 125.443 109.188C125.351 109.372 125.224 109.536 125.069 109.671L121.948 112.468C121.635 112.698 121.246 112.803 120.86 112.762C120.473 112.72 120.115 112.536 119.857 112.245C119.599 111.954 119.46 111.577 119.465 111.188C119.471 110.799 119.621 110.426 119.887 110.142L123.008 107.345C123.161 107.208 123.339 107.101 123.533 107.033C123.726 106.964 123.932 106.935 124.137 106.945C124.342 106.956 124.543 107.008 124.728 107.097C124.914 107.185 125.079 107.31 125.216 107.463ZM140.438 63.889L106.168 98.1299H154.629C154.089 85.3988 149.062 73.2693 140.438 63.889ZM136.081 76.549C135.768 76.8223 135.36 76.9603 134.946 76.9327C134.532 76.9051 134.146 76.7141 133.872 76.4018C133.599 76.0894 133.461 75.6813 133.489 75.2672C133.516 74.8531 133.707 74.4669 134.02 74.1936L137.111 71.4261C137.419 71.1489 137.825 71.0056 138.239 71.0277C138.654 71.0498 139.042 71.2354 139.319 71.5439C139.596 71.8523 139.74 72.2582 139.718 72.6723C139.696 73.0864 139.51 73.4748 139.201 73.752L136.081 76.549ZM124.51 89.2973C125.923 88.0313 127.866 90.2984 129.044 92.006C127.843 92.167 126.62 91.9938 125.511 91.5055C125.058 91.3135 124.648 91.0332 124.304 90.6811C124.098 90.5045 124.009 90.2984 124.009 90.1217C123.98 89.9156 124.127 89.6212 124.51 89.2973ZM136.728 81.3186C137.656 80.3652 138.847 79.7115 140.15 79.4419C141.452 79.1724 142.805 79.2993 144.035 79.8063C145.264 80.3134 146.314 81.1772 147.048 82.2865C147.781 83.3957 148.166 84.6994 148.152 86.0293C148.172 87.3617 147.792 88.6696 147.06 89.7834C146.329 90.8972 145.28 91.7658 144.049 92.2765C142.818 92.7872 141.462 92.9166 140.157 92.6479C138.852 92.3792 137.657 91.7248 136.728 90.7694C136.104 90.1508 135.609 89.4148 135.271 88.6037C134.933 87.7927 134.759 86.9227 134.759 86.044C134.759 85.1653 134.933 84.2954 135.271 83.4843C135.609 82.6733 136.104 81.9372 136.728 81.3186ZM98.1299 46.371C84.9694 46.9599 72.9865 52.2005 63.889 60.562L98.1299 94.803V46.371ZM90.1806 54.9975C90.5142 54.7646 90.9256 54.6711 91.3271 54.7371C91.7286 54.8031 92.0884 55.0233 92.3299 55.3508L94.7735 58.7661C95.0156 59.1018 95.1144 59.52 95.0481 59.9286C94.9819 60.3372 94.756 60.7027 94.4202 60.9448C94.0845 61.1868 93.6663 61.2856 93.2577 61.2194C92.8491 61.1531 92.4836 60.9272 92.2415 60.5915L89.7979 57.1762C89.678 57.01 89.592 56.8217 89.5449 56.6223C89.4977 56.4228 89.4904 56.216 89.5232 56.0137C89.556 55.8114 89.6283 55.6175 89.7361 55.4431C89.8438 55.2688 90.0143 55.1173 90.1806 54.9975ZM79.6404 54.4676C80.9703 54.4532 82.274 54.8378 83.3832 55.5716C84.4925 56.3054 85.3563 57.3548 85.8634 58.5844C86.3704 59.814 86.4973 61.1672 86.2278 62.4696C85.9582 63.772 85.3045 64.9637 84.3511 65.891C83.4221 66.8464 82.2276 67.5008 80.9224 67.7695C79.6172 68.0382 78.2614 67.9088 77.0306 67.3981C75.7997 66.8874 74.7506 66.0188 74.0191 64.905C73.2876 63.7911 72.9073 62.4833 72.9276 61.1509C72.9237 60.2696 73.0949 59.3964 73.4312 58.5818C73.7675 57.7673 74.2623 57.0276 74.8868 56.4058C75.5113 55.7841 76.2531 55.2925 77.0691 54.9598C77.8852 54.6271 78.7592 54.4598 79.6404 54.4676ZM91.0639 69.5418C91.9471 69.5418 92.6537 70.2484 92.6537 71.1022C92.6537 74.3997 91.7705 75.2241 90.8872 76.0485C90.5339 76.3723 90.1806 76.6962 90.1806 78.5216C90.1806 78.9394 90.0146 79.34 89.7193 79.6354C89.4239 79.9308 89.0232 80.0967 88.6055 80.0967C88.1877 80.0967 87.7871 79.9308 87.4917 79.6354C87.1963 79.34 87.0303 78.9394 87.0303 78.5216C87.0303 75.3419 87.9136 74.5469 88.7674 73.752C89.1207 73.3987 89.5034 73.0454 89.5034 71.1022C89.5034 70.219 90.21 69.5418 91.0639 69.5418ZM102.841 46.371V94.803L137.111 60.562C127.723 51.9312 115.582 46.9037 102.841 46.371ZM120.005 60.5915C117.473 62.8291 114.176 58.5894 112.586 56.1163C114.586 55.6526 116.683 55.8489 118.563 56.6757C119.226 56.9694 119.826 57.3894 120.329 57.9123C120.641 58.2001 120.848 58.5833 120.918 59.0016C120.918 59.4727 120.653 60.0026 120.005 60.5915ZM111.084 66.7154C112.408 66.7072 113.704 67.094 114.807 67.8264C115.91 68.5588 116.769 69.6035 117.275 70.8269C117.78 72.0503 117.91 73.3967 117.646 74.694C117.383 75.9912 116.738 77.1804 115.795 78.1094C114.866 79.0525 113.677 79.697 112.38 79.9606C111.082 80.2242 109.736 80.0948 108.513 79.589C107.289 79.0832 106.244 78.2241 105.512 77.1213C104.78 76.0186 104.393 74.7225 104.401 73.3987C104.397 72.52 104.567 71.6491 104.902 70.8365C105.236 70.0239 105.728 69.2856 106.35 68.6642C106.971 68.0428 107.71 67.5507 108.522 67.2162C109.335 66.8817 110.206 66.7115 111.084 66.7154Z" fill="#FECA5F"/>
<g id="_430176136">
<path id="_621921256" d="M100.485 25.114C121.301 25.114 140.144 33.5638 153.775 47.1954C167.436 60.827 175.857 79.6699 175.857 100.485C175.857 121.301 167.436 140.144 153.775 153.775C146.785 160.785 138.479 166.344 129.334 170.134C120.188 173.923 110.385 175.868 100.485 175.857C90.586 175.868 80.7821 173.923 71.6369 170.134C62.4917 166.344 54.1854 160.785 47.1954 153.775C40.1858 146.785 34.6265 138.479 30.837 129.334C27.0475 120.188 25.1026 110.385 25.114 100.485C25.114 79.6699 33.5638 60.827 47.1954 47.1954C54.1854 40.1858 62.4917 34.6265 71.6369 30.837C80.7821 27.0475 90.586 25.1026 100.485 25.114ZM150.448 50.5223C143.895 43.9504 136.107 38.7385 127.533 35.1865C118.958 31.6344 109.766 29.8123 100.485 29.8247C80.9947 29.8247 63.3296 37.7446 50.5223 50.5223C43.9504 57.0757 38.7385 64.8635 35.1865 73.4379C31.6344 82.0123 29.8123 91.2043 29.8247 100.485C29.8247 120.005 37.7446 137.67 50.5223 150.448C57.0757 157.02 64.8635 162.232 73.4379 165.784C82.0123 169.336 91.2043 171.158 100.485 171.146C120.005 171.146 137.67 163.255 150.448 150.448C157.02 143.895 162.232 136.107 165.784 127.533C169.336 118.958 171.158 109.766 171.146 100.485C171.146 80.9947 163.255 63.3296 150.448 50.5223Z" fill="#333333"/>
<path id="_621921784" d="M100.485 41.6014C116.767 41.6014 131.488 48.1964 142.146 58.8544C152.774 69.5124 159.369 84.2333 159.369 100.485C159.369 116.767 152.774 131.488 142.146 142.146C136.679 147.62 130.184 151.96 123.035 154.915C115.885 157.871 108.222 159.385 100.485 159.369C92.7588 159.377 85.1066 157.86 77.9677 154.904C70.8288 151.949 64.3436 147.613 58.8839 142.146C53.4043 136.681 49.059 130.188 46.0981 123.038C43.1372 115.888 41.619 108.224 41.6309 100.485C41.6309 84.2333 48.2259 69.5124 58.8839 58.8544C64.3447 53.3783 70.8336 49.0351 77.9779 46.0743C85.1223 43.1135 92.7518 41.5935 100.485 41.6014ZM138.789 62.2108C133.771 57.1706 127.806 53.1714 121.238 50.4431C114.67 47.7147 107.627 46.3108 100.515 46.3121C85.5288 46.3121 71.9855 52.3772 62.1814 62.2108C57.1465 67.2315 53.1527 73.1971 50.4295 79.7653C47.7062 86.3335 46.307 93.3749 46.3122 100.485C46.3122 115.442 52.3772 128.985 62.2108 138.789C67.2293 143.84 73.1972 147.849 79.7709 150.584C86.3447 153.319 93.3946 154.727 100.515 154.727C107.635 154.727 114.685 153.319 121.259 150.584C127.832 147.849 133.8 143.84 138.819 138.789C148.593 128.985 154.658 115.442 154.658 100.515C154.658 85.5288 148.593 72.0149 138.789 62.2108Z" fill="#333333"/>
<path id="_621921760" d="M102.841 27.4693C102.841 26.8447 102.592 26.2456 102.151 25.8039C101.709 25.3621 101.11 25.114 100.485 25.114C99.8606 25.114 99.2615 25.3621 98.8198 25.8039C98.3781 26.2456 98.1299 26.8447 98.1299 27.4693V100.485C98.1299 101.11 98.3781 101.709 98.8198 102.151C99.2615 102.592 99.8606 102.841 100.485 102.841C101.11 102.841 101.709 102.592 102.151 102.151C102.592 101.709 102.841 101.11 102.841 100.485V27.4693Z" fill="#333333"/>
<path id="_621921568" d="M153.805 50.5223C154.246 50.0773 154.492 49.4751 154.489 48.8485C154.487 48.2218 154.235 47.6219 153.79 47.1807C153.345 46.7395 152.743 46.4932 152.116 46.496C151.489 46.4987 150.889 46.7503 150.448 47.1954L98.8366 98.8365C98.4306 99.2846 98.2125 99.8716 98.2273 100.476C98.2422 101.08 98.489 101.656 98.9165 102.084C99.344 102.511 99.9196 102.758 100.524 102.773C101.128 102.788 101.715 102.569 102.163 102.163L153.805 50.5223Z" fill="#333333"/>
<path id="_621921664" d="M173.501 102.841C174.126 102.841 174.725 102.592 175.167 102.151C175.608 101.709 175.857 101.11 175.857 100.485C175.857 99.8606 175.608 99.2615 175.167 98.8198C174.725 98.3781 174.126 98.1299 173.501 98.1299H100.485C99.8606 98.1299 99.2615 98.3781 98.8198 98.8198C98.3781 99.2615 98.1299 99.8606 98.1299 100.485C98.1299 101.11 98.3781 101.709 98.8198 102.151C99.2615 102.592 99.8606 102.841 100.485 102.841H173.501Z" fill="#333333"/>
<path id="_621921496" d="M150.448 153.805C150.893 154.25 151.497 154.5 152.126 154.5C152.756 154.5 153.36 154.25 153.805 153.805C154.25 153.36 154.5 152.756 154.5 152.126C154.5 151.497 154.25 150.893 153.805 150.448L102.163 98.8366C101.715 98.4306 101.128 98.2125 100.524 98.2273C99.9196 98.2422 99.344 98.489 98.9165 98.9165C98.489 99.344 98.2422 99.9196 98.2273 100.524C98.2125 101.128 98.4306 101.715 98.8366 102.163L150.448 153.805Z" fill="#333333"/>
<path id="_621921544" d="M98.1299 173.501C98.1299 174.126 98.3781 174.725 98.8198 175.167C99.2615 175.608 99.8606 175.857 100.485 175.857C101.11 175.857 101.709 175.608 102.151 175.167C102.592 174.725 102.841 174.126 102.841 173.501V100.485C102.841 99.8606 102.592 99.2615 102.151 98.8198C101.709 98.3781 101.11 98.1299 100.485 98.1299C99.8606 98.1299 99.2615 98.3781 98.8198 98.8198C98.3781 99.2615 98.1299 99.8606 98.1299 100.485V173.501Z" fill="#333333"/>
<path id="_621921712" d="M47.1954 150.448C46.7503 150.889 46.4987 151.489 46.496 152.116C46.4932 152.743 46.7395 153.345 47.1807 153.79C47.6219 154.235 48.2218 154.487 48.8485 154.489C49.4751 154.492 50.0773 154.246 50.5223 153.805L102.163 102.163C102.569 101.715 102.788 101.128 102.773 100.524C102.758 99.9196 102.511 99.344 102.084 98.9165C101.656 98.489 101.08 98.2422 100.476 98.2273C99.8716 98.2125 99.2846 98.4306 98.8365 98.8366L47.1954 150.448Z" fill="#333333"/>
<path id="_621921424" d="M27.4693 98.1299C26.8447 98.1299 26.2456 98.3781 25.8039 98.8198C25.3621 99.2615 25.114 99.8606 25.114 100.485C25.114 101.11 25.3621 101.709 25.8039 102.151C26.2456 102.592 26.8447 102.841 27.4693 102.841H100.485C101.11 102.841 101.709 102.592 102.151 102.151C102.592 101.709 102.841 101.11 102.841 100.485C102.841 99.8606 102.592 99.2615 102.151 98.8198C101.709 98.3781 101.11 98.1299 100.485 98.1299H27.4693Z" fill="#333333"/>
<path id="_431713112" d="M50.5223 47.1954C50.0743 46.7894 49.4873 46.5713 48.8829 46.5862C48.2784 46.6011 47.7029 46.8478 47.2753 47.2753C46.8478 47.7029 46.6011 48.2784 46.5862 48.8829C46.5713 49.4873 46.7894 50.0743 47.1954 50.5223L98.8365 102.163C99.2846 102.569 99.8716 102.788 100.476 102.773C101.08 102.758 101.656 102.511 102.084 102.084C102.511 101.656 102.758 101.08 102.773 100.476C102.788 99.8716 102.569 99.2846 102.163 98.8365L50.5223 47.1954Z" fill="#333333"/>
<path id="_430177384" d="M79.6404 54.4676C80.9703 54.4533 82.274 54.8378 83.3833 55.5717C84.4925 56.3055 85.3564 57.3549 85.8634 58.5844C86.3704 59.814 86.4973 61.1673 86.2278 62.4697C85.9582 63.772 85.3046 64.9638 84.3511 65.891C83.4221 66.8464 82.2277 67.5008 80.9224 67.7695C79.6172 68.0382 78.2614 67.9088 77.0306 67.3981C75.7997 66.8874 74.7506 66.0188 74.0191 64.905C73.2876 63.7912 72.9073 62.4833 72.9277 61.1509C72.9237 60.2696 73.0949 59.3964 73.4312 58.5818C73.7675 57.7673 74.2623 57.0276 74.8868 56.4059C75.5113 55.7841 76.2531 55.2926 77.0692 54.9598C77.8852 54.6271 78.7592 54.4598 79.6404 54.4676ZM82.143 58.6483C81.6505 58.1422 81.0177 57.7952 80.3261 57.6522C79.6345 57.5093 78.916 57.5768 78.2632 57.8462C77.6104 58.1155 77.0533 58.5744 76.6637 59.1634C76.2742 59.7525 76.0702 60.4447 76.0779 61.1509C76.0702 61.857 76.2742 62.5493 76.6637 63.1384C77.0533 63.7274 77.6104 64.1863 78.2632 64.4556C78.916 64.725 79.6345 64.7925 80.3261 64.6495C81.0177 64.5066 81.6505 64.1596 82.143 63.6535C82.4723 63.3252 82.7337 62.9352 82.912 62.5058C83.0903 62.0763 83.1821 61.6159 83.1821 61.1509C83.1821 60.6859 83.0903 60.2255 82.912 59.796C82.7337 59.3666 82.4723 58.9766 82.143 58.6483Z" fill="#333333"/>
<path id="_430177288" d="M111.084 66.7154C112.408 66.7072 113.704 67.094 114.807 67.8264C115.91 68.5588 116.769 69.6035 117.275 70.8269C117.78 72.0503 117.91 73.3967 117.646 74.694C117.383 75.9912 116.738 77.1804 115.795 78.1094C114.866 79.0525 113.677 79.697 112.38 79.9606C111.082 80.2242 109.736 80.0948 108.513 79.589C107.289 79.0832 106.245 78.2241 105.512 77.1213C104.78 76.0186 104.393 74.7225 104.401 73.3987C104.397 72.52 104.567 71.6491 104.902 70.8365C105.236 70.0239 105.728 69.2856 106.35 68.6642C106.971 68.0428 107.71 67.5507 108.522 67.2162C109.335 66.8817 110.206 66.7115 111.084 66.7154ZM113.587 70.8962C113.094 70.39 112.462 70.0431 111.77 69.9001C111.078 69.7571 110.36 69.8246 109.707 70.094C109.054 70.3634 108.497 70.8222 108.108 71.4112C107.718 72.0003 107.514 72.6926 107.522 73.3987C107.514 74.1049 107.718 74.7971 108.108 75.3862C108.497 75.9753 109.054 76.4341 109.707 76.7034C110.36 76.9728 111.078 77.0403 111.77 76.8974C112.462 76.7544 113.094 76.4074 113.587 75.9013C113.916 75.573 114.178 75.183 114.356 74.7536C114.534 74.3241 114.626 73.8637 114.626 73.3987C114.626 72.9337 114.534 72.4733 114.356 72.0438C114.178 71.6144 113.916 71.2244 113.587 70.8962Z" fill="#333333"/>
<path id="_430177072" d="M141.468 79.346C142.798 79.3317 144.102 79.7163 145.211 80.4501C146.32 81.1839 147.184 82.2333 147.691 83.4628C148.198 84.6924 148.325 86.0457 148.056 87.3481C147.786 88.6505 147.133 89.8422 146.179 90.7695C145.25 91.7125 144.061 92.3571 142.764 92.6207C141.466 92.8842 140.12 92.7549 138.897 92.2491C137.673 91.7433 136.629 90.8841 135.896 89.7814C135.164 88.6787 134.777 87.3825 134.785 86.0588C134.777 85.1775 134.945 84.3035 135.277 83.4875C135.61 82.6715 136.102 81.9297 136.723 81.3052C137.345 80.6806 138.085 80.1859 138.899 79.8495C139.714 79.5132 140.587 79.3421 141.468 79.346ZM143.971 83.5267C143.477 83.0309 142.847 82.693 142.16 82.556C141.474 82.4189 140.762 82.4889 140.115 82.757C139.469 83.0251 138.916 83.4793 138.528 84.0619C138.14 84.6445 137.934 85.3293 137.935 86.0293C137.928 86.7319 138.13 87.4207 138.516 88.0079C138.901 88.595 139.454 89.0538 140.101 89.3256C140.749 89.5974 141.464 89.6698 142.153 89.5337C142.842 89.3976 143.475 89.059 143.971 88.5613C144.3 88.2331 144.562 87.8431 144.74 87.4136C144.918 86.9842 145.01 86.5238 145.01 86.0588C145.01 85.5938 144.918 85.1333 144.74 84.7039C144.562 84.2744 144.3 83.8844 143.971 83.5562V83.5267Z" fill="#333333"/>
<path id="_430177552" d="M137.023 104.401C138.346 104.393 139.643 104.78 140.745 105.512C141.848 106.245 142.707 107.289 143.213 108.513C143.719 109.736 143.848 111.082 143.585 112.38C143.321 113.677 142.677 114.866 141.733 115.795C140.804 116.738 139.615 117.383 138.318 117.646C137.021 117.91 135.674 117.78 134.451 117.275C133.228 116.769 132.183 115.91 131.45 114.807C130.718 113.704 130.331 112.408 130.339 111.084C130.336 110.206 130.506 109.335 130.84 108.522C131.175 107.71 131.667 106.971 132.288 106.35C132.91 105.728 133.648 105.236 134.461 104.902C135.273 104.567 136.144 104.397 137.023 104.401ZM139.525 108.582C139.033 108.076 138.4 107.729 137.708 107.586C137.017 107.443 136.298 107.51 135.645 107.78C134.993 108.049 134.436 108.508 134.046 109.097C133.657 109.686 133.453 110.378 133.46 111.084C133.453 111.791 133.657 112.483 134.046 113.072C134.436 113.661 134.993 114.12 135.645 114.389C136.298 114.658 137.017 114.726 137.708 114.583C138.4 114.44 139.033 114.093 139.525 113.587C139.855 113.259 140.116 112.869 140.294 112.439C140.473 112.01 140.564 111.549 140.564 111.084C140.564 110.619 140.473 110.159 140.294 109.73C140.116 109.3 139.855 108.91 139.525 108.582Z" fill="#333333"/>
<path id="_430177048" d="M111.879 120.094C113.212 120.073 114.52 120.454 115.633 121.185C116.747 121.917 117.616 122.966 118.127 124.197C118.637 125.427 118.767 126.783 118.498 128.088C118.229 129.394 117.575 130.588 116.619 131.517C115.692 132.471 114.5 133.124 113.198 133.394C111.896 133.663 110.542 133.536 109.313 133.029C108.083 132.522 107.034 131.658 106.3 130.549C105.566 129.44 105.182 128.136 105.196 126.806C105.188 125.923 105.356 125.046 105.691 124.228C106.026 123.41 106.52 122.667 107.145 122.042C107.77 121.417 108.513 120.923 109.331 120.589C110.149 120.254 111.025 120.086 111.909 120.094H111.879ZM114.411 124.274C113.919 123.768 113.286 123.421 112.594 123.278C111.903 123.135 111.184 123.203 110.532 123.472C109.879 123.742 109.322 124.2 108.932 124.789C108.543 125.379 108.339 126.071 108.346 126.777C108.339 127.483 108.543 128.175 108.932 128.764C109.322 129.353 109.879 129.812 110.532 130.082C111.184 130.351 111.903 130.419 112.594 130.276C113.286 130.133 113.919 129.786 114.411 129.279C114.741 128.951 115.002 128.561 115.18 128.132C115.359 127.702 115.45 127.242 115.45 126.777C115.45 126.312 115.359 125.852 115.18 125.422C115.002 124.993 114.741 124.603 114.411 124.274Z" fill="#333333"/>
<path id="_430177528" d="M79.6699 132.665C80.9936 132.657 82.2898 133.044 83.3925 133.776C84.4952 134.509 85.3544 135.553 85.8602 136.777C86.366 138 86.4953 139.347 86.2318 140.644C85.9682 141.941 85.3236 143.13 84.3806 144.059C83.4516 145.002 82.2624 145.647 80.9651 145.911C79.6678 146.174 78.3214 146.045 77.098 145.539C75.8747 145.033 74.83 144.174 74.0976 143.071C73.3652 141.968 72.9783 140.672 72.9865 139.349C72.9827 138.47 73.1529 137.599 73.4873 136.786C73.8218 135.974 74.314 135.235 74.9354 134.614C75.5567 133.993 76.295 133.501 77.1077 133.166C77.9203 132.832 78.7911 132.661 79.6699 132.665ZM82.1724 136.846C81.6783 136.35 81.048 136.012 80.3615 135.875C79.675 135.738 78.9633 135.808 78.3166 136.076C77.67 136.344 77.1176 136.799 76.7295 137.381C76.3414 137.964 76.1351 138.649 76.1368 139.349C76.1351 140.049 76.3414 140.733 76.7295 141.316C77.1176 141.899 77.67 142.353 78.3166 142.621C78.9633 142.889 79.675 142.959 80.3615 142.822C81.048 142.685 81.6783 142.347 82.1724 141.851C82.5018 141.523 82.7631 141.133 82.9415 140.703C83.1198 140.274 83.2116 139.814 83.2116 139.349C83.2116 138.884 83.1198 138.423 82.9415 137.994C82.7631 137.564 82.5018 137.174 82.1724 136.846Z" fill="#333333"/>
<path id="_430177336" d="M74.1936 104.401C75.5199 104.387 76.8202 104.769 77.9275 105.5C79.0348 106.23 79.8986 107.274 80.408 108.499C80.9175 109.723 81.0494 111.072 80.7867 112.372C80.524 113.672 79.8788 114.864 78.9338 115.795C78.0065 116.749 76.8148 117.402 75.5124 117.672C74.21 117.941 72.8567 117.814 71.6272 117.307C70.3976 116.8 69.3482 115.936 68.6144 114.827C67.8806 113.718 67.496 112.414 67.5103 111.084C67.5064 110.203 67.6776 109.33 68.0139 108.515C68.3502 107.701 68.845 106.961 69.4695 106.339C70.094 105.718 70.8358 105.226 71.6518 104.893C72.4679 104.561 73.3124 104.393 74.1936 104.401ZM76.7257 108.582C76.2332 108.076 75.6003 107.729 74.9088 107.586C74.2172 107.443 73.4986 107.51 72.8458 107.78C72.193 108.049 71.6359 108.508 71.2464 109.097C70.8569 109.686 70.6529 110.378 70.6606 111.084C70.6529 111.791 70.8569 112.483 71.2464 113.072C71.6359 113.661 72.193 114.12 72.8458 114.389C73.4986 114.658 74.2172 114.726 74.9088 114.583C75.6003 114.44 76.2332 114.093 76.7257 113.587C77.055 113.259 77.3164 112.869 77.4947 112.439C77.673 112.01 77.7648 111.549 77.7648 111.084C77.7648 110.619 77.673 110.159 77.4947 109.73C77.3164 109.3 77.055 108.91 76.7257 108.582Z" fill="#333333"/>
<path id="_430177120" d="M55.3508 82.4079C56.6832 82.3876 57.9911 82.7679 59.1049 83.4994C60.2188 84.2309 61.0873 85.28 61.598 86.5109C62.1088 87.7417 62.2382 89.0975 61.9694 90.4027C61.7007 91.7079 61.0463 92.9024 60.091 93.8314C59.1637 94.7848 57.972 95.4385 56.6696 95.7081C55.3672 95.9776 54.0139 95.8507 52.7843 95.3437C51.5548 94.8366 50.5054 93.9728 49.7716 92.8635C49.0378 91.7543 48.6532 90.4506 48.6675 89.1207C48.6596 88.237 48.8279 87.3605 49.1625 86.5426C49.497 85.7246 49.9912 84.9815 50.6161 84.3566C51.241 83.7316 51.9842 83.2375 52.8021 82.9029C53.6201 82.5683 54.4965 82.4001 55.3803 82.4079H55.3508ZM57.8828 86.5887C57.3904 86.0825 56.7575 85.7356 56.0659 85.5926C55.3744 85.4496 54.6558 85.5172 54.003 85.7865C53.3502 86.0559 52.7931 86.5147 52.4036 87.1038C52.0141 87.6928 51.81 88.3851 51.8178 89.0913C51.81 89.7974 52.0141 90.4897 52.4036 91.0787C52.7931 91.6678 53.3502 92.1266 54.003 92.396C54.6558 92.6653 55.3744 92.7329 56.0659 92.5899C56.7575 92.4469 57.3904 92.1 57.8828 91.5938C58.2122 91.2656 58.4735 90.8756 58.6519 90.4461C58.8302 90.0167 58.922 89.5563 58.922 89.0913C58.922 88.6263 58.8302 88.1658 58.6519 87.7364C58.4735 87.3069 58.2122 86.9169 57.8828 86.5887Z" fill="#333333"/>
<path id="_430177720" d="M112.586 56.1163C114.176 58.5894 117.473 62.8291 120.005 60.5915C120.682 60.0027 120.947 59.4727 120.889 59.0016C120.835 58.5907 120.649 58.2084 120.359 57.9123C119.847 57.3863 119.237 56.9661 118.563 56.6757C116.686 55.839 114.589 55.6324 112.586 56.0869V56.1163ZM122.096 62.9468C116.001 68.3347 109.671 57.4118 108.935 56.1458C108.808 55.9576 108.723 55.7439 108.687 55.5196C108.65 55.2952 108.663 55.0657 108.725 54.847C108.787 54.6282 108.896 54.4256 109.044 54.2533C109.192 54.081 109.376 53.9431 109.583 53.8493C111.199 53.1257 112.95 52.7516 114.72 52.7516C116.491 52.7516 118.242 53.1257 119.858 53.8493C120.977 54.3498 121.919 55.027 122.655 55.7925C123.45 56.6757 123.95 57.7062 124.039 58.7955C124.127 60.2087 123.568 61.6514 122.096 62.9468Z" fill="#333333"/>
<path id="_430177696" d="M129.044 92.006C127.866 90.2984 125.923 88.0313 124.51 89.2973C124.127 89.6212 123.98 89.8862 123.98 90.1217C123.98 90.2984 124.098 90.5045 124.274 90.7106C124.569 91.005 124.981 91.2994 125.481 91.5055C126.6 91.9992 127.833 92.1725 129.044 92.006ZM122.449 86.942C127.277 82.6435 132.165 91.0344 132.754 92.0649C132.876 92.2521 132.956 92.4634 132.99 92.6845C133.023 92.9056 133.009 93.1312 132.947 93.3462C132.886 93.5612 132.779 93.7605 132.634 93.9305C132.489 94.1006 132.309 94.2375 132.106 94.3319C130.86 94.8881 129.511 95.1755 128.146 95.1755C126.781 95.1755 125.432 94.8881 124.186 94.3319C123.355 93.9735 122.605 93.453 121.978 92.8009C121.332 92.1292 120.937 91.2561 120.859 90.3278C120.771 89.1501 121.242 88.0019 122.449 86.942Z" fill="#333333"/>
<path id="_430177144" d="M112.321 142.941C113.499 144.648 115.412 146.915 116.855 145.649C117.238 145.325 117.385 145.06 117.356 144.825C117.356 144.648 117.238 144.472 117.061 144.236C116.723 143.898 116.324 143.628 115.883 143.441C114.765 142.947 113.532 142.774 112.321 142.941ZM118.916 148.005C114.087 152.303 109.2 143.912 108.611 142.882C108.489 142.694 108.409 142.483 108.375 142.262C108.342 142.041 108.356 141.815 108.418 141.6C108.479 141.385 108.586 141.186 108.731 141.016C108.876 140.846 109.056 140.709 109.259 140.615C110.505 140.058 111.854 139.771 113.219 139.771C114.584 139.771 115.933 140.058 117.179 140.615C118.062 140.997 118.798 141.527 119.358 142.146C120.014 142.813 120.419 143.687 120.506 144.619C120.565 145.796 120.123 146.945 118.916 148.005Z" fill="#333333"/>
<path id="_430176424" d="M63.5651 124.009C62.3874 122.272 60.4443 120.005 59.0311 121.271C58.6483 121.625 58.4717 121.89 58.5011 122.125C58.5011 122.272 58.6189 122.478 58.7955 122.684C59.0899 122.979 59.5021 123.273 59.9732 123.509C61.1002 124.008 62.3446 124.181 63.5651 124.009ZM56.9407 118.945C61.7986 114.647 66.686 123.038 67.2454 124.068C67.3675 124.255 67.448 124.467 67.4814 124.688C67.5148 124.909 67.5003 125.135 67.4389 125.35C67.3775 125.565 67.2705 125.764 67.1254 125.934C66.9803 126.104 66.8003 126.241 66.5976 126.335C65.3475 126.896 64.0224 127.185 62.6524 127.185C61.2824 127.185 59.9279 126.896 58.6778 126.335C57.8577 125.973 57.1173 125.453 56.4991 124.804C55.8536 124.133 55.4586 123.259 55.3803 122.331C55.2919 121.153 55.763 119.976 56.9407 118.945Z" fill="#333333"/>
<path id="_430176976" d="M75.018 89.5623C76.1957 91.27 78.1389 93.537 79.5521 92.271C79.9348 91.9177 80.1115 91.6527 80.082 91.4466C80.082 91.27 79.9643 91.0639 79.7876 90.8578C79.4499 90.5194 79.05 90.2495 78.6099 90.0629C77.4829 89.5636 76.2386 89.3902 75.018 89.5623ZM81.6425 94.5969C76.7845 98.9249 71.8972 90.5339 71.3083 89.5035C71.1862 89.3162 71.1057 89.1049 71.0723 88.8838C71.0389 88.6628 71.0534 88.4371 71.1148 88.2221C71.1762 88.0072 71.2831 87.8079 71.4283 87.6378C71.5734 87.4678 71.7534 87.3309 71.9561 87.2364C73.2062 86.676 74.5607 86.3862 75.9307 86.3862C77.3007 86.3862 78.6553 86.676 79.9054 87.2364C80.7592 87.6192 81.5247 88.1197 82.0841 88.7674C82.7295 89.4392 83.1245 90.3123 83.2029 91.2405C83.2912 92.3888 82.8201 93.5664 81.6425 94.5969Z" fill="#333333"/>
<path id="_430176376" d="M62.2402 71.8972C62.1204 71.7309 61.969 71.5899 61.7946 71.4822C61.6202 71.3744 61.4264 71.3021 61.2241 71.2693C61.0218 71.2365 60.815 71.2439 60.6155 71.291C60.416 71.3381 60.2278 71.424 60.0615 71.5439C59.8953 71.6637 59.7543 71.8152 59.6465 71.9895C59.5388 72.1639 59.4665 72.3577 59.4337 72.5601C59.4009 72.7624 59.4082 72.9692 59.4553 73.1686C59.5024 73.3681 59.5884 73.5563 59.7082 73.7226L62.1519 77.1378C62.394 77.4736 62.7595 77.6995 63.1681 77.7657C63.5767 77.832 63.9949 77.7332 64.3306 77.4911C64.6664 77.2491 64.8922 76.8835 64.9585 76.475C65.0248 76.0664 64.926 75.6482 64.6839 75.3124L62.2402 71.8972Z" fill="#333333"/>
<path id="_430176856" d="M125.069 109.671C125.336 109.387 125.486 109.015 125.492 108.626C125.497 108.237 125.357 107.86 125.099 107.569C124.841 107.277 124.484 107.093 124.097 107.052C123.71 107.01 123.322 107.115 123.008 107.345L119.888 110.142C119.575 110.416 119.384 110.802 119.357 111.216C119.329 111.63 119.467 112.038 119.74 112.35C120.014 112.663 120.4 112.854 120.814 112.881C121.228 112.909 121.636 112.771 121.948 112.498L125.069 109.671Z" fill="#333333"/>
<path id="_430176520" d="M139.201 73.752C139.514 73.4787 139.705 73.0925 139.732 72.6784C139.76 72.2643 139.622 71.8562 139.349 71.5439C139.075 71.2315 138.689 71.0406 138.275 71.013C137.861 70.9854 137.453 71.1234 137.141 71.3967L133.99 74.1937C133.678 74.4709 133.488 74.8608 133.464 75.2777C133.439 75.6945 133.581 76.1042 133.858 76.4165C134.135 76.7289 134.525 76.9183 134.942 76.9431C135.359 76.968 135.768 76.8262 136.081 76.549L139.201 73.752Z" fill="#333333"/>
<path id="_430176616" d="M127.307 138.083C127.619 137.805 127.809 137.415 127.834 136.999C127.858 136.582 127.717 136.172 127.439 135.86C127.162 135.547 126.772 135.358 126.355 135.333C125.939 135.308 125.529 135.45 125.217 135.727L122.096 138.524C121.783 138.798 121.592 139.184 121.565 139.598C121.537 140.012 121.675 140.42 121.948 140.732C122.222 141.045 122.608 141.236 123.022 141.263C123.436 141.291 123.844 141.153 124.157 140.88L127.307 138.083Z" fill="#333333"/>
<path id="_430176832" d="M91.4172 142.676C91.1048 142.402 90.6967 142.264 90.2826 142.292C89.8685 142.319 89.4823 142.51 89.209 142.823C88.9357 143.135 88.7977 143.543 88.8253 143.957C88.8529 144.371 89.0439 144.758 89.3562 145.031L92.4771 147.798C92.6317 147.934 92.8115 148.037 93.0062 148.103C93.2009 148.169 93.4066 148.196 93.6116 148.182C93.8167 148.169 94.017 148.115 94.2012 148.024C94.3854 147.932 94.5499 147.806 94.6852 147.651C94.8205 147.497 94.9241 147.317 94.9899 147.122C95.0558 146.927 95.0826 146.722 95.0689 146.517C95.0553 146.312 95.0013 146.111 94.9102 145.927C94.8191 145.743 94.6927 145.578 94.538 145.443L91.4172 142.676Z" fill="#333333"/>
<path id="_430176640" d="M92.3299 55.3508C92.0878 55.0151 91.7223 54.7892 91.3137 54.723C90.9051 54.6567 90.4869 54.7555 90.1512 54.9975C89.8154 55.2396 89.5896 55.6051 89.5233 56.0137C89.457 56.4223 89.5558 56.8405 89.7979 57.1762L92.2416 60.5915C92.4836 60.9273 92.8492 61.1531 93.2577 61.2194C93.6663 61.2856 94.0845 61.1869 94.4203 60.9448C94.756 60.7027 94.9819 60.3372 95.0481 59.9286C95.1144 59.52 95.0156 59.1019 94.7736 58.7661L92.3299 55.3508Z" fill="#333333"/>
<path id="_430176448" d="M92.6537 71.1022C92.6537 70.6845 92.4878 70.2838 92.1924 69.9884C91.897 69.6931 91.4963 69.5271 91.0786 69.5271C90.6608 69.5271 90.2602 69.6931 89.9648 69.9884C89.6694 70.2838 89.5035 70.6845 89.5035 71.1022C89.5035 73.0454 89.1207 73.3987 88.7674 73.752C87.8842 74.5469 87.0303 75.3419 87.0303 78.5216C87.0303 78.9394 87.1963 79.34 87.4917 79.6354C87.7871 79.9308 88.1877 80.0967 88.6055 80.0967C89.0232 80.0967 89.4239 79.9308 89.7193 79.6354C90.0147 79.34 90.1806 78.9394 90.1806 78.5216C90.1806 76.6962 90.5339 76.3723 90.8872 76.0485C91.7705 75.2241 92.6537 74.3997 92.6537 71.1022Z" fill="#333333"/>
<path id="_430176688" d="M70.6606 81.6425C70.6606 81.2247 70.4947 80.8241 70.1993 80.5287C69.9039 80.2333 69.5032 80.0673 69.0855 80.0673C68.6677 80.0673 68.2671 80.2333 67.9717 80.5287C67.6763 80.8241 67.5103 81.2247 67.5103 81.6425C67.5103 83.5856 67.157 83.9389 66.7743 84.2922C65.891 85.0872 65.0667 85.9115 65.0667 89.0618C65.0667 89.4757 65.231 89.8726 65.5237 90.1652C65.8163 90.4578 66.2132 90.6223 66.6271 90.6223C67.0409 90.6223 67.4378 90.4578 67.7305 90.1652C68.0231 89.8726 68.1875 89.4757 68.1875 89.0618C68.1875 87.2659 68.5408 86.9126 68.8941 86.5887C69.7774 85.7643 70.6606 84.94 70.6606 81.6425Z" fill="#333333"/>
<path id="_430175824" d="M52.5538 106.639C52.1907 106.44 51.7634 106.393 51.3659 106.509C50.9683 106.625 50.6331 106.894 50.434 107.257C50.2349 107.62 50.1882 108.047 50.3041 108.445C50.4201 108.842 50.6892 109.178 51.0523 109.377C53.9376 110.967 55.0858 110.584 56.2046 110.231C56.6757 110.054 57.1468 109.936 58.7366 110.761C59.0951 110.914 59.4982 110.928 59.8665 110.8C60.2347 110.671 60.5414 110.409 60.7261 110.065C60.9108 109.722 60.9602 109.321 60.8644 108.943C60.7686 108.565 60.5347 108.237 60.2087 108.022C57.4412 106.521 56.3518 106.874 55.233 107.257C54.7325 107.404 54.2615 107.522 52.5538 106.639Z" fill="#333333"/>
<path id="_430175488" d="M87.9725 123.509C87.614 123.355 87.2109 123.341 86.8426 123.47C86.4744 123.599 86.1677 123.86 85.983 124.204C85.7983 124.548 85.7489 124.948 85.8447 125.326C85.9405 125.704 86.1744 126.033 86.5004 126.247C89.5918 127.955 90.5928 127.307 91.5644 126.689C91.741 126.571 91.9177 126.453 93.3015 127.189C93.6599 127.343 94.063 127.357 94.4313 127.228C94.7995 127.099 95.1062 126.838 95.291 126.494C95.4757 126.15 95.525 125.75 95.4292 125.372C95.3335 124.994 95.0995 124.665 94.7736 124.451C91.8294 122.832 90.8578 123.421 89.8862 124.039C89.6801 124.186 89.474 124.333 87.9725 123.509Z" fill="#333333"/>
<path id="_430176088" d="M142.205 121.36C142.205 120.946 142.04 120.549 141.747 120.256C141.455 119.964 141.058 119.799 140.644 119.799C140.23 119.799 139.833 119.964 139.541 120.256C139.248 120.549 139.084 120.946 139.084 121.36C139.084 123.303 138.701 123.656 138.318 124.009C137.464 124.804 136.611 125.599 136.611 128.75C136.611 129.167 136.776 129.568 137.072 129.863C137.367 130.159 137.768 130.325 138.186 130.325C138.603 130.325 139.004 130.159 139.299 129.863C139.595 129.568 139.761 129.167 139.761 128.75C139.761 126.983 140.114 126.63 140.467 126.306C141.351 125.481 142.205 124.657 142.205 121.36Z" fill="#333333"/>
</g>
<path id="Vector_2" fill-rule="evenodd" clip-rule="evenodd" d="M102.841 41.6603C117.326 42.2492 130.487 48.0198 140.438 57.2351L148.77 48.903C136.283 37.1886 119.954 30.4268 102.841 29.8836V41.6603ZM143.765 60.562C152.951 70.5134 158.78 83.6445 159.34 98.1299H171.116C170.573 81.0166 163.811 64.6879 152.097 52.2005L143.765 60.562ZM159.34 102.841C158.751 117.326 152.951 130.487 143.765 140.438L152.097 148.77C163.432 136.669 170.528 120.594 171.116 102.841H159.34ZM140.438 143.765C130.487 152.951 117.326 158.78 102.841 159.34V171.116C119.954 170.573 136.283 163.811 148.77 152.097L140.438 143.765ZM98.1299 159.34C84.1505 158.795 70.8262 153.271 60.562 143.765L52.23 152.097C64.3012 163.432 80.4059 170.528 98.1594 171.116V159.34H98.1299ZM57.2351 140.438C47.7117 130.17 42.1767 116.834 41.6309 102.841H29.8541C30.443 120.594 37.5679 136.669 48.903 148.77L57.2351 140.438ZM41.6603 98.1299C42.2492 83.6445 48.0198 70.5134 57.2351 60.562L48.903 52.23C37.5679 64.3012 30.443 80.4059 29.8836 98.1594H41.6603V98.1299ZM60.562 57.2351C70.5134 48.0198 83.6445 42.2197 98.1299 41.6309V29.8541C81.0127 30.4054 64.6835 37.1779 52.2005 48.903L60.562 57.2351Z" fill="#FFD3B3"/>
<path id="Vector_3" fill-rule="evenodd" clip-rule="evenodd" d="M98.1299 154.629V106.168L63.889 140.438C73.016 148.77 84.9694 154.04 98.1299 154.629ZM85.8526 124.127C85.9511 123.947 86.0841 123.789 86.244 123.66C86.4039 123.532 86.5875 123.436 86.7844 123.379C86.9813 123.321 87.1875 123.303 87.3914 123.325C87.5953 123.348 87.7927 123.41 87.9725 123.509C89.4446 124.304 89.6801 124.186 89.8862 124.039C90.8578 123.45 91.7999 122.832 94.803 124.451C95.1661 124.65 95.4352 124.985 95.5512 125.383C95.6671 125.78 95.6204 126.208 95.4213 126.571C95.2222 126.934 94.887 127.203 94.4894 127.319C94.0919 127.435 93.6645 127.388 93.3014 127.189C91.9177 126.453 91.741 126.571 91.5349 126.689C90.5928 127.307 89.5918 127.955 86.5004 126.247C86.318 126.151 86.1564 126.02 86.025 125.861C85.8936 125.702 85.7949 125.519 85.7347 125.322C85.6745 125.125 85.6539 124.918 85.6742 124.713C85.6944 124.508 85.7551 124.309 85.8526 124.127ZM89.209 142.793C89.346 142.64 89.512 142.516 89.6972 142.427C89.8825 142.338 90.0835 142.287 90.2886 142.276C90.4938 142.265 90.6991 142.295 90.8928 142.363C91.0864 142.432 91.2646 142.538 91.4172 142.676L94.538 145.473C94.8504 145.746 95.0413 146.132 95.0689 146.546C95.0965 146.96 94.9585 147.368 94.6852 147.681C94.4119 147.993 94.0257 148.184 93.6116 148.212C93.1975 148.239 92.7894 148.101 92.4771 147.828L89.3268 145.001C89.1737 144.864 89.0492 144.699 88.9604 144.513C88.8716 144.328 88.8202 144.127 88.8093 143.922C88.7983 143.717 88.828 143.511 88.8966 143.318C88.9652 143.124 89.0714 142.946 89.209 142.793ZM79.6698 132.665C80.9936 132.657 82.2897 133.044 83.3925 133.776C84.4952 134.509 85.3544 135.553 85.8602 136.777C86.3659 138 86.4953 139.347 86.2317 140.644C85.9682 141.941 85.3236 143.13 84.3805 144.059C83.4516 145.002 82.2624 145.647 80.9651 145.911C79.6678 146.174 78.3214 146.045 77.098 145.539C75.8747 145.033 74.83 144.174 74.0976 143.071C73.3652 141.969 72.9783 140.672 72.9865 139.349C72.9826 138.47 73.1528 137.599 73.4873 136.786C73.8218 135.974 74.314 135.235 74.9353 134.614C75.5567 133.993 76.295 133.501 77.1076 133.166C77.9203 132.832 78.7911 132.661 79.6698 132.665Z" fill="#FECA5F"/>
<path id="Vector_4" fill-rule="evenodd" clip-rule="evenodd" d="M55.3508 92.6537C56.0595 92.6675 56.7559 92.4678 57.3496 92.0806C57.9433 91.6934 58.4068 91.1366 58.6799 90.4825C58.9529 89.8284 59.0229 89.1073 58.8808 88.4129C58.7387 87.7185 58.391 87.0829 57.8828 86.5887C57.3904 86.0825 56.7575 85.7356 56.066 85.5926C55.3744 85.4496 54.6558 85.5172 54.003 85.7865C53.3502 86.0559 52.7931 86.5147 52.4036 87.1038C52.0141 87.6928 51.8101 88.3851 51.8178 89.0913C51.8178 90.0283 52.19 90.9269 52.8526 91.5895C53.5152 92.2521 54.4138 92.6243 55.3508 92.6243V92.6537Z" fill="#F45A52"/>
<path id="Vector_5" fill-rule="evenodd" clip-rule="evenodd" d="M75.018 89.5624C76.1957 91.27 78.1388 93.537 79.5521 92.271C79.9348 91.9177 80.1115 91.6527 80.082 91.4466C80.082 91.27 79.9642 91.0639 79.7876 90.8578C79.4499 90.5194 79.05 90.2495 78.6099 90.0629C77.4829 89.5636 76.2386 89.3902 75.018 89.5624Z" fill="#949494"/>
<path id="Vector_6" fill-rule="evenodd" clip-rule="evenodd" d="M79.6404 64.7134C80.3465 64.7211 81.0388 64.5171 81.6279 64.1276C82.2169 63.7381 82.6757 63.1809 82.9451 62.5281C83.2145 61.8753 83.282 61.1568 83.139 60.4652C82.996 59.7737 82.6491 59.1408 82.1429 58.6483C81.6505 58.1422 81.0176 57.7952 80.3261 57.6522C79.6345 57.5093 78.9159 57.5768 78.2631 57.8462C77.6103 58.1155 77.0532 58.5744 76.6637 59.1634C76.2742 59.7525 76.0702 60.4447 76.0779 61.1509C76.0779 62.0879 76.4501 62.9866 77.1127 63.6491C77.7753 64.3117 78.6739 64.6839 79.6109 64.6839L79.6404 64.7134Z" fill="#F45A52"/>
<path id="Vector_7" fill-rule="evenodd" clip-rule="evenodd" d="M112.586 56.1163C114.176 58.5895 117.473 62.8291 120.005 60.5915C120.682 60.0027 120.947 59.4727 120.889 59.0016C120.835 58.5907 120.649 58.2084 120.359 57.9123C119.847 57.3863 119.237 56.9661 118.563 56.6757C116.686 55.839 114.589 55.6324 112.586 56.0869V56.1163Z" fill="#949494"/>
<path id="Vector_8" fill-rule="evenodd" clip-rule="evenodd" d="M113.587 70.8962C113.094 70.39 112.462 70.0431 111.77 69.9001C111.078 69.7571 110.36 69.8246 109.707 70.094C109.054 70.3634 108.497 70.8222 108.108 71.4112C107.718 72.0003 107.514 72.6926 107.522 73.3987C107.514 74.1049 107.718 74.7972 108.108 75.3862C108.497 75.9753 109.054 76.4341 109.707 76.7034C110.36 76.9728 111.078 77.0404 111.77 76.8974C112.462 76.7544 113.094 76.4074 113.587 75.9013C113.916 75.5731 114.178 75.183 114.356 74.7536C114.534 74.3241 114.626 73.8637 114.626 73.3987C114.626 72.9337 114.534 72.4733 114.356 72.0439C114.178 71.6144 113.916 71.2244 113.587 70.8962ZM138.966 83.5267C138.46 84.0192 138.113 84.6521 137.97 85.3436C137.827 86.0352 137.894 86.7537 138.164 87.4066C138.433 88.0594 138.892 88.6165 139.481 89.006C140.07 89.3955 140.762 89.5995 141.468 89.5918C142.175 89.5995 142.867 89.3955 143.456 89.006C144.045 88.6165 144.504 88.0594 144.773 87.4066C145.042 86.7537 145.11 86.0352 144.967 85.3436C144.824 84.6521 144.477 84.0192 143.971 83.5267C143.643 83.1974 143.253 82.936 142.823 82.7577C142.394 82.5794 141.933 82.4876 141.468 82.4876C141.003 82.4876 140.543 82.5794 140.114 82.7577C139.684 82.936 139.294 83.1974 138.966 83.5267Z" fill="#F45A52"/>
<path id="Vector_9" fill-rule="evenodd" clip-rule="evenodd" d="M129.044 92.006C127.866 90.2984 125.923 88.0313 124.51 89.2973C124.127 89.6212 123.98 89.8862 123.98 90.1217C123.98 90.2984 124.098 90.5045 124.274 90.7106C124.569 91.005 124.981 91.2994 125.481 91.5055C126.6 91.9992 127.833 92.1725 129.044 92.006Z" fill="#949494"/>
<path id="Vector_10" fill-rule="evenodd" clip-rule="evenodd" d="M137.023 107.522C136.317 107.514 135.624 107.718 135.035 108.108C134.446 108.497 133.987 109.054 133.718 109.707C133.449 110.36 133.381 111.078 133.524 111.77C133.667 112.462 134.014 113.094 134.52 113.587C135.014 114.083 135.645 114.421 136.331 114.558C137.018 114.695 137.729 114.625 138.376 114.357C139.023 114.089 139.575 113.634 139.963 113.052C140.351 112.469 140.557 111.784 140.556 111.084C140.556 110.147 140.184 109.249 139.521 108.586C138.858 107.924 137.96 107.551 137.023 107.551V107.522ZM114.411 124.274C113.919 123.768 113.286 123.421 112.594 123.278C111.903 123.135 111.184 123.203 110.532 123.472C109.879 123.742 109.322 124.2 108.932 124.789C108.543 125.379 108.339 126.071 108.346 126.777C108.339 127.483 108.543 128.175 108.932 128.764C109.322 129.353 109.879 129.812 110.532 130.082C111.184 130.351 111.903 130.419 112.594 130.276C113.286 130.133 113.919 129.786 114.411 129.279C114.741 128.951 115.002 128.561 115.18 128.132C115.359 127.702 115.45 127.242 115.45 126.777C115.45 126.312 115.359 125.852 115.18 125.422C115.002 124.993 114.741 124.603 114.411 124.274Z" fill="#F45A52"/>
<path id="Vector_11" fill-rule="evenodd" clip-rule="evenodd" d="M117.061 144.265C116.726 143.916 116.326 143.636 115.883 143.441C114.765 142.947 113.532 142.774 112.321 142.941C113.499 144.648 115.412 146.915 116.855 145.649C117.238 145.325 117.385 145.06 117.355 144.825C117.355 144.648 117.238 144.501 117.061 144.265Z" fill="#949494"/>
<path id="Vector_12" fill-rule="evenodd" clip-rule="evenodd" d="M82.1724 141.851C82.6785 141.359 83.0255 140.726 83.1685 140.034C83.3115 139.343 83.2439 138.624 82.9746 137.971C82.7052 137.319 82.2464 136.761 81.6573 136.372C81.0683 135.982 80.376 135.778 79.6698 135.786C78.9637 135.778 78.2714 135.982 77.6824 136.372C77.0933 136.761 76.6345 137.319 76.3651 137.971C76.0958 138.624 76.0282 139.343 76.1712 140.034C76.3142 140.726 76.6611 141.359 77.1673 141.851C77.4955 142.181 77.8855 142.442 78.315 142.62C78.7444 142.799 79.2048 142.89 79.6698 142.89C80.1348 142.89 80.5953 142.799 81.0247 142.62C81.4541 142.442 81.8442 142.181 82.1724 141.851ZM74.1936 114.617C74.8962 114.625 75.585 114.423 76.1722 114.037C76.7593 113.651 77.2181 113.099 77.4899 112.451C77.7617 111.803 77.8342 111.089 77.698 110.4C77.5619 109.711 77.2233 109.078 76.7256 108.582C76.2332 108.076 75.6003 107.729 74.9088 107.586C74.2172 107.443 73.4986 107.51 72.8458 107.78C72.193 108.049 71.6359 108.508 71.2464 109.097C70.8569 109.686 70.6529 110.378 70.6606 111.084C70.6606 111.548 70.752 112.008 70.9295 112.436C71.1071 112.865 71.3673 113.255 71.6954 113.583C72.0235 113.911 72.413 114.171 72.8416 114.348C73.2703 114.526 73.7297 114.617 74.1936 114.617Z" fill="#F45A52"/>
<path id="Vector_13" fill-rule="evenodd" clip-rule="evenodd" d="M63.5651 124.009C62.3874 122.272 60.4443 120.005 59.0311 121.271C58.6483 121.625 58.4717 121.89 58.5011 122.125C58.5011 122.272 58.6189 122.478 58.7955 122.684C59.0899 122.979 59.5021 123.273 59.9732 123.509C61.1002 124.008 62.3446 124.181 63.5651 124.009Z" fill="#949494"/>
</g>
</g>
<defs>
<clipPath id="clip0_111_236">
<rect width="201" height="201" fill="white"/>
</clipPath>
</defs>
</svg>
