<svg width="43" height="43" viewBox="0 0 43 43" fill="none" xmlns="http://www.w3.org/2000/svg">
<g id="icons_1_" clip-path="url(#clip0_124_108)">
<g id="row1_1_">
<g id="_x31__3_">
<path id="_x32__2_" d="M21.5 43C33.3586 43 43 33.3586 43 21.5C43 9.64141 33.3586 0 21.5 0C9.64141 0 0 9.64141 0 21.5C0 33.3586 9.64141 43 21.5 43ZM21.5 2.15C32.1828 2.15 40.85 10.8172 40.85 21.5C40.85 32.1828 32.1828 40.85 21.5 40.85C10.8172 40.85 2.15 32.1828 2.15 21.5C2.15 10.8172 10.8172 2.15 21.5 2.15ZM26.4719 30.1L18.275 21.5L26.4719 12.9H21.9367L13.975 21.5L21.9367 30.1H26.4719Z" fill="#FA4B00"/>
</g>
</g>
</g>
<defs>
<clipPath id="clip0_124_108">
<rect width="43" height="43" fill="white" transform="matrix(-1 0 0 -1 43 43)"/>
</clipPath>
</defs>
</svg>
